<svg width="41" height="40" viewBox="0 0 41 40" fill="none" xmlns="http://www.w3.org/2000/svg">
<path d="M20.8072 22.083C21.2213 22.083 21.557 22.419 21.5572 22.833C21.5572 23.2473 21.2214 23.583 20.8072 23.583H20.7926C20.3783 23.583 20.0426 23.2473 20.0426 22.833C20.0427 22.419 20.3785 22.083 20.7926 22.083H20.8072Z" fill="#047AE9"/>
<path d="M14.6386 22.083C15.0527 22.083 15.3884 22.419 15.3886 22.833C15.3886 23.2473 15.0528 23.583 14.6386 23.583H14.6239C14.2097 23.583 13.8739 23.2473 13.8739 22.833C13.8741 22.419 14.2098 22.083 14.6239 22.083H14.6386Z" fill="#047AE9"/>
<path d="M14.6386 27.083C15.0527 27.083 15.3884 27.419 15.3886 27.833C15.3886 28.2473 15.0528 28.583 14.6386 28.583H14.6239C14.2097 28.583 13.8739 28.2473 13.8739 27.833C13.8741 27.419 14.2098 27.083 14.6239 27.083H14.6386Z" fill="#047AE9"/>
<path d="M14.1334 3.33334V8.33334M27.4667 3.33334V8.33334M6.63338 15.15H34.9667M26.4167 36.6667C27.5834 37.7167 29.1167 38.3333 30.8 38.3333C33.2334 38.3333 35.35 37.0333 36.5 35.1C37.1167 34.1 37.4667 32.9167 37.4667 31.6667C37.4667 29.9833 36.8334 28.45 35.8 27.2667M26.4167 36.6667C25.9001 36.2333 25.4501 35.7 25.1001 35.1C24.4834 34.1 24.1334 32.9167 24.1334 31.6667C24.1334 27.9833 27.1167 25 30.8 25C32.8 25 34.5834 25.8833 35.8 27.2667M26.4167 36.6667L14.1334 36.6667C8.30005 36.6667 5.80005 33.3333 5.80005 28.3333V14.1667C5.80005 9.16668 8.30005 5.83334 14.1334 5.83334H27.4667C33.3 5.83334 35.8 9.16668 35.8 14.1667V27.2667M28.2001 31.6667L29.8501 33.3167L33.4001 30.0333M20.8072 22.083C21.2213 22.083 21.557 22.419 21.5572 22.833C21.5572 23.2473 21.2214 23.583 20.8072 23.583H20.7926C20.3783 23.583 20.0426 23.2473 20.0426 22.833C20.0427 22.419 20.3785 22.083 20.7926 22.083H20.8072ZM14.6386 22.083C15.0527 22.083 15.3884 22.419 15.3886 22.833C15.3886 23.2473 15.0528 23.583 14.6386 23.583H14.6239C14.2097 23.583 13.8739 23.2473 13.8739 22.833C13.8741 22.419 14.2098 22.083 14.6239 22.083H14.6386ZM14.6386 27.083C15.0527 27.083 15.3884 27.419 15.3886 27.833C15.3886 28.2473 15.0528 28.583 14.6386 28.583H14.6239C14.2097 28.583 13.8739 28.2473 13.8739 27.833C13.8741 27.419 14.2098 27.083 14.6239 27.083H14.6386Z" stroke="#047AE9" stroke-width="2.5" stroke-linecap="round" stroke-linejoin="round"/>
</svg>
