<svg width="577" height="429" viewBox="0 0 577 429" fill="none" xmlns="http://www.w3.org/2000/svg">
<rect width="577" height="428.425" transform="translate(0 0.575195)" fill="#0D5DBC"/>
<g style="mix-blend-mode:multiply" opacity="0.3">
<path d="M246.683 375.073L261.394 366.556L231.734 349.393L229.684 348.204L202.008 332.187L188.246 340.142L134.576 309.08C122.302 301.968 102.392 301.968 90.1177 309.08C77.8436 316.191 77.8436 327.713 90.1177 334.803L143.809 365.865L134.555 371.225L162.231 387.243L164.28 388.431L193.941 405.594L204.144 399.693C216.051 403.411 231.216 402.352 241.268 396.537C251.32 390.723 253.132 381.947 246.704 375.051L246.683 375.073Z" fill="#BD8A4B"/>
</g>
<g style="mix-blend-mode:multiply" opacity="0.3">
<path d="M420.828 312.365L370.74 283.4C367.137 281.303 361.291 281.303 357.667 283.4L335.665 296.132C335.427 296.197 335.168 296.262 334.931 296.326L269.117 316.797C254.168 321.444 250.371 332.792 260.639 342.152C270.886 351.512 291.314 355.338 306.263 350.69L318.105 347.016L339.526 359.401C343.128 361.498 348.974 361.498 352.598 359.401L420.828 319.931C424.431 317.834 424.431 314.462 420.828 312.365Z" fill="#BD8A4B"/>
</g>
<g style="mix-blend-mode:multiply" opacity="0.36">
<path d="M57.2029 280.387L14.4651 255.401L16.4376 251.456L90.7357 246.196L102.571 253.429L57.2029 280.387Z" fill="#BD8A4B"/>
</g>
<path d="M57.0564 240.732V276.311L97.2654 253.053L97.6537 252.836V217.257L66.5047 235.263L57.0564 240.732Z" fill="#BD8A4B"/>
<path d="M16.459 217.257V252.836L16.8257 253.053L57.0563 276.311V240.732L47.5865 235.263L16.459 217.257Z" fill="#EFB972"/>
<path d="M16.4589 217.257L57.0562 240.731L97.6535 217.257L57.0562 193.76L52.2458 196.549L19.673 215.398L16.4589 217.257Z" fill="#FFE1B3"/>
<path d="M57.0563 193.76V240.731L97.6536 217.257L57.0563 193.76Z" fill="#EFB972"/>
<mask id="mask0_83_1117" style="mask-type:luminance" maskUnits="userSpaceOnUse" x="0" y="172" width="98" height="69">
<path d="M57.0563 193.761L97.6536 217.257L57.0563 240.732L16.459 217.257L0 193.761L22.8441 172.556L57.0563 193.761Z" fill="white"/>
</mask>
<g mask="url(#mask0_83_1117)">
<path d="M28.9271 233.534L30.5665 230.335H32.0334C32.206 230.227 32.3785 230.118 32.5511 230.01C38.1597 226.768 47.2412 226.768 52.8498 230.01C53.0223 230.118 53.1949 230.227 53.3675 230.335H54.8343L56.4738 233.534C57.919 236.365 56.711 239.543 52.8498 241.769C47.2412 245.012 38.1597 245.012 32.5511 241.769C28.6898 239.543 27.4818 236.365 28.9271 233.534Z" fill="#A61539"/>
<path d="M33.7375 227.243C28.7976 230.097 28.7976 234.744 33.7375 237.597C38.6773 240.451 46.7019 240.451 51.6417 237.597C56.5815 234.744 56.5815 230.097 51.6417 227.243C46.7019 224.39 38.6773 224.39 33.7375 227.243Z" fill="#DB1C4B"/>
<path d="M34.4495 234.312C33.5435 234.831 33.5435 235.674 34.4495 236.193C35.3555 236.711 36.8224 236.711 37.7068 236.193C38.6128 235.674 38.6128 234.831 37.7068 234.312C36.8008 233.793 35.3339 233.793 34.4495 234.312Z" fill="white"/>
<path d="M35.0964 233.879C34.5571 234.182 34.5571 234.701 35.0964 235.003C35.6356 235.306 36.4985 235.306 37.0378 235.003C37.5771 234.701 37.5771 234.182 37.0378 233.879C36.4985 233.577 35.6356 233.577 35.0964 233.879Z" fill="#A61539"/>
<path d="M39.1522 200.267L35.6576 198.235C41.4387 201.607 43.9194 210.362 43.2723 229.211L46.7668 231.243C47.4356 212.394 44.9548 203.639 39.1522 200.267Z" fill="#3A4D5C"/>
<path d="M31.2999 195.771L27.8054 193.739L26.7915 196.484L30.3076 198.516L31.2999 195.771Z" fill="#B2D7EA"/>
<path d="M42.0209 197.954L38.5264 195.923C35.7221 194.301 32.1844 193.675 27.8054 193.739L31.3 195.771C35.7005 195.706 39.2382 196.333 42.0209 197.954Z" fill="#3A4D5C"/>
<path d="M31.3 195.771L30.3077 198.517C42.3446 198.149 47.6943 204.634 46.7667 231.243L50.9947 228.8C50.9515 202.753 45.7528 195.555 31.3216 195.771H31.3Z" fill="#B2D7EA"/>
<path d="M33.3062 215.139C34.6868 210.773 33.9533 205.325 31.8825 199.165L21.6361 195.101C16.8473 197.565 12.6624 200.786 9.62085 205.433C10.3974 209.649 26.9858 216.76 33.3062 215.117V215.139Z" fill="#DB1C4B"/>
<g style="mix-blend-mode:screen" opacity="0.2">
<path d="M21.6791 196.052L22.4126 196.895C18.2709 199.965 15.1214 203.596 12.8349 207.919C12.8349 207.963 12.878 208.006 12.878 208.049C11.67 207.163 10.8287 206.32 10.5267 205.606C13.0937 201.78 16.7609 198.668 21.6576 196.074L21.6791 196.052Z" fill="white"/>
</g>
<path d="M33.5002 195.122L31.8824 199.186C29.035 200.332 21.9596 197.371 21.636 195.122L23.5127 190.562C24.9795 187.47 28.8408 187.773 30.545 188.551C32.1628 189.308 34.4062 191.491 33.4787 195.122H33.5002Z" fill="#A61539"/>
<g style="mix-blend-mode:screen" opacity="0.2">
<path d="M24.2893 190.907C25.0874 189.221 26.7053 188.875 27.9133 188.875C28.6467 188.875 29.3801 189.005 29.9841 189.243C29.79 189.243 29.5958 189.221 29.4017 189.221C28.1074 189.221 26.4033 189.61 25.562 191.469L23.6206 196.268C23.0597 195.879 22.6714 195.49 22.542 195.166L24.2893 190.907Z" fill="white"/>
</g>
<path d="M60.7666 246.287L44.6743 236.992L48.5787 234.723L60.745 242.245C61.2627 244.082 61.2627 245.422 60.745 246.287H60.7666Z" fill="#A61539"/>
<path d="M61.2412 245.876L45.4509 236.755V232.712L61.5216 242.007C62.0393 243.845 61.7373 245.012 61.2196 245.876H61.2412Z" fill="#F4C099"/>
<path d="M83.783 232.972L60.7664 246.288C61.2841 245.142 61.2841 243.78 60.7664 242.246L83.783 228.93C84.2576 230.595 84.2576 231.935 83.783 232.972Z" fill="#DB1C4B"/>
<path d="M83.783 228.93L60.7663 242.245L44.6957 232.929L67.7123 219.613L83.783 228.93Z" fill="#A61539"/>
<path d="M57.1423 242.763L41.0717 233.468L44.9761 231.199L57.1423 238.721C57.66 240.558 57.66 241.899 57.1423 242.763Z" fill="#094559"/>
<path d="M57.6171 242.331L41.8269 233.209V229.167L57.8976 238.462C58.4153 240.299 58.1133 241.466 57.5956 242.331H57.6171Z" fill="#F4C099"/>
<path d="M83.3948 227.568L57.1425 242.763C57.6602 241.618 57.6602 240.256 57.1425 238.721L83.3948 223.525C83.8694 225.19 83.8694 226.53 83.3948 227.568Z" fill="#094559"/>
<path d="M83.3949 223.525L57.1425 238.7L41.0503 229.405L67.3026 214.209L83.3949 223.525Z" fill="#1390BA"/>
<path d="M59.0193 235.977L43.4016 226.941L48.6219 223.915L59.0193 230.573C59.7096 233.015 59.7096 234.831 59.0193 235.998V235.977Z" fill="#3A4D5C"/>
<path d="M59.6449 235.414L44.4155 226.616V221.191L60.0332 230.226C60.7235 232.669 60.3136 234.247 59.6233 235.414H59.6449Z" fill="#F4C099"/>
<path d="M82.9634 222.12L59.0192 235.976C59.6879 234.441 59.6879 232.626 59.0192 230.551L82.9634 216.695C83.5889 218.921 83.5889 220.715 82.9634 222.12Z" fill="#394C5A"/>
<path d="M82.9635 216.695L59.0193 230.551L43.4016 221.515L67.3458 207.66L82.9635 216.695Z" fill="#547085"/>
</g>
<g style="mix-blend-mode:multiply" opacity="0.36">
<path d="M518.187 228.068L463.771 196.609L472.554 192.057L555.724 188.618L571.602 196.963L518.187 228.068Z" fill="#BD8A4B"/>
</g>
<path d="M468.323 165.94V193.738L520.461 223.892V196.094L468.323 165.94Z" fill="#BD8A4B"/>
<g style="mix-blend-mode:multiply" opacity="0.75">
<path d="M468.323 165.94V185.481L520.461 215.635V196.094L468.323 165.94Z" fill="#BD8A4B"/>
</g>
<path d="M566.344 197.348L520.461 223.892V196.094L566.344 169.55V197.348Z" fill="#EFB972"/>
<path d="M468.345 165.94L520.44 196.094L542.313 183.449L543.37 182.844L544.966 181.936L566.344 169.572L514.206 139.396L492.828 151.76L491.232 152.69L468.345 165.94Z" fill="#FFE1B3"/>
<path d="M514.206 139.396V167.194L542.313 183.449L543.37 182.844L544.966 181.936L566.344 169.572L514.206 139.396Z" fill="#BD8A4B"/>
<path d="M514.206 139.396V167.194L486.098 183.449L485.041 182.844L483.445 181.936L462.089 169.572L514.206 139.396Z" fill="#EFB972"/>
<path d="M520.462 196.073L468.324 165.918L450.225 170.177L502.363 200.331L520.462 196.073Z" fill="#FFE1B3"/>
<path d="M577 149.685L524.884 119.509L514.206 139.396L566.344 169.55L577 149.685Z" fill="#FFE1B3"/>
<mask id="mask1_83_1117" style="mask-type:luminance" maskUnits="userSpaceOnUse" x="468" y="123" width="100" height="74">
<path d="M566.344 169.55L520.462 196.073L468.324 165.919L468.194 123.249L567.034 126.491L566.344 169.55Z" fill="white"/>
</mask>
<g mask="url(#mask1_83_1117)">
<path d="M517.937 186C517.937 185.546 518.239 185.092 518.843 184.746L527.558 179.666C528.766 178.975 530.707 178.975 531.915 179.666L549.474 189.826C550.164 190.236 550.445 190.777 550.358 191.296C550.358 191.231 550.38 191.166 550.38 191.101V193.608C550.38 194.062 550.078 194.516 549.474 194.862L540.759 199.942C539.551 200.634 537.61 200.634 536.402 199.942L518.843 189.782C518.239 189.437 517.937 188.961 517.937 188.507V186Z" fill="#1A1A1A"/>
<path d="M549.453 189.826C550.661 190.517 550.661 191.663 549.453 192.355L540.738 197.434C539.53 198.126 537.589 198.126 536.381 197.434L518.822 187.275C517.614 186.583 517.614 185.438 518.822 184.746L527.536 179.666C528.744 178.975 530.686 178.975 531.894 179.666L549.453 189.826Z" fill="white"/>
<path d="M535.755 192.376L539.099 190.409L537.459 178.758L535.777 179.731L535.755 192.376Z" fill="#1A1A1A"/>
<path d="M535.776 179.731L537.459 178.758L532.497 175.883L530.815 176.856L535.776 179.731Z" fill="#333333"/>
<path d="M530.815 176.856L530.794 189.501L535.755 192.376L535.777 179.731L530.815 176.856Z" fill="#808080"/>
<path d="M559.894 161.055L559.786 198.169L509.309 168.966L509.417 131.83L559.894 161.055Z" fill="#E6E6E6"/>
<path d="M559.786 198.169L561.511 197.153L561.619 160.039L559.894 161.055L559.786 198.169Z" fill="#1A1A1A"/>
<path d="M559.894 161.055L561.619 160.039L511.121 130.836L509.417 131.83L559.894 161.055Z" fill="#808080"/>
<path d="M558.427 195.791V195.1L558.513 161.833L511.358 134.554L510.776 134.229L510.69 168.166L558.427 195.791Z" fill="#1A1A1A"/>
<path d="M558.427 195.1L558.513 161.833L511.358 134.554L511.272 167.842L558.427 195.1Z" fill="#29ABE2"/>
<path d="M545.916 201.671V160.536L532.8 152.949L531.938 153.446L532.8 194.084L545.053 202.168L545.916 201.671Z" fill="white"/>
<path d="M545.053 202.168V161.033L531.938 153.446V194.581L545.053 202.168Z" fill="#1A1A1A"/>
<path d="M532.93 155.78V158.049L534.44 158.914V156.644L532.93 155.78Z" fill="white"/>
<path d="M532.93 158.417V160.708L534.44 161.573V159.303L532.93 158.417Z" fill="white"/>
<path d="M532.93 161.076V163.367L534.44 164.232V161.94L532.93 161.076Z" fill="white"/>
<path d="M532.93 163.735V166.005L534.44 166.891V164.599L532.93 163.735Z" fill="white"/>
<path d="M532.93 166.394V168.663L534.44 169.528V167.258L532.93 166.394Z" fill="white"/>
<path d="M532.93 169.031V171.322L534.44 172.187V169.917L532.93 169.031Z" fill="white"/>
<path d="M532.93 171.689V173.98L534.44 174.845V172.554L532.93 171.689Z" fill="white"/>
<path d="M532.93 174.348V176.617L534.44 177.504V175.212L532.93 174.348Z" fill="white"/>
<path d="M532.93 177.007V179.277L534.44 180.141V177.871L532.93 177.007Z" fill="white"/>
<path d="M532.93 179.644V181.935L534.44 182.799V180.53L532.93 179.644Z" fill="white"/>
<path d="M532.93 182.303V184.594L534.44 185.459V183.167L532.93 182.303Z" fill="white"/>
<path d="M535.626 157.336V159.606L537.136 160.492V158.201L535.626 157.336Z" fill="white"/>
<path d="M535.626 159.995V162.265L537.136 163.129V160.86L535.626 159.995Z" fill="white"/>
<path d="M535.626 162.632V164.924L537.136 165.788V163.519L535.626 162.632Z" fill="white"/>
<path d="M535.626 165.291V167.582L537.136 168.447V166.156L535.626 165.291Z" fill="white"/>
<path d="M535.626 167.95V170.219L537.136 171.106V168.814L535.626 167.95Z" fill="white"/>
<path d="M535.626 170.608V172.878L537.136 173.743V171.473L535.626 170.608Z" fill="white"/>
<path d="M535.626 173.246V175.537L537.136 176.402V174.132L535.626 173.246Z" fill="white"/>
<path d="M535.626 175.904V178.196L537.136 179.06V176.769L535.626 175.904Z" fill="white"/>
<path d="M535.626 178.563V180.833L537.136 181.719V179.428L535.626 178.563Z" fill="white"/>
<path d="M535.626 181.222V183.491L537.136 184.356V182.086L535.626 181.222Z" fill="white"/>
<path d="M535.626 183.859V186.15L537.136 187.015V184.745L535.626 183.859Z" fill="white"/>
<path d="M537.352 158.331V160.6L538.862 161.486V159.195L537.352 158.331Z" fill="white"/>
<path d="M537.352 160.989V163.259L538.862 164.124V161.854L537.352 160.989Z" fill="white"/>
<path d="M537.352 163.626V165.918L538.862 166.782V164.513L537.352 163.626Z" fill="white"/>
<path d="M537.352 166.285V168.576L538.862 169.441V167.15L537.352 166.285Z" fill="white"/>
<path d="M537.352 168.944V171.214L538.862 172.1V169.809L537.352 168.944Z" fill="white"/>
<path d="M537.352 171.603V173.873L538.862 174.759V172.468L537.352 171.603Z" fill="white"/>
<path d="M537.352 174.24V176.532L538.862 177.396V175.126L537.352 174.24Z" fill="white"/>
<path d="M537.352 176.899V179.19L538.862 180.055V177.785L537.352 176.899Z" fill="white"/>
<path d="M537.352 179.557V181.848L538.862 182.713V180.422L537.352 179.557Z" fill="white"/>
<path d="M537.352 182.216V184.486L538.862 185.372V183.081L537.352 182.216Z" fill="white"/>
<path d="M539.078 159.325V161.616L540.588 162.481V160.189L539.078 159.325Z" fill="white"/>
<path d="M539.078 161.984V164.254L540.588 165.14V162.849L539.078 161.984Z" fill="white"/>
<path d="M539.078 164.643V166.912L540.588 167.777V165.507L539.078 164.643Z" fill="white"/>
<path d="M539.078 167.28V169.571L540.588 170.436V168.166L539.078 167.28Z" fill="white"/>
<path d="M539.078 169.938V172.23L540.588 173.094V170.803L539.078 169.938Z" fill="white"/>
<path d="M539.078 172.597V174.867L540.588 175.753V173.462L539.078 172.597Z" fill="white"/>
<path d="M539.078 175.256V177.526L540.588 178.39V176.12L539.078 175.256Z" fill="white"/>
<path d="M539.078 177.893V180.184L540.588 181.049V178.779L539.078 177.893Z" fill="white"/>
<path d="M539.078 180.552V182.843L540.588 183.708V181.416L539.078 180.552Z" fill="white"/>
<path d="M537.352 184.875L539.078 185.869V183.21L540.588 184.075V186.734V187.404V189.003L539.315 188.269L539.078 188.139L537.352 187.145V184.875Z" fill="white"/>
<path d="M540.803 163.669V162.978V160.319L542.313 161.183V163.842V164.534V166.133L540.803 165.247V163.669Z" fill="white"/>
<path d="M540.803 165.637V167.906L542.313 168.793V166.501L540.803 165.637Z" fill="white"/>
<path d="M540.803 168.296V170.566L542.313 171.43V169.161L540.803 168.296Z" fill="white"/>
<path d="M540.803 170.933V173.224L542.313 174.089V171.819L540.803 170.933Z" fill="white"/>
<path d="M540.803 173.592V175.883L542.313 176.748V174.456L540.803 173.592Z" fill="white"/>
<path d="M540.803 176.25V178.52L542.313 179.406V177.115L540.803 176.25Z" fill="white"/>
<path d="M540.803 178.909V181.178L542.313 182.043V179.773L540.803 178.909Z" fill="white"/>
<path d="M540.803 181.546V183.837L542.313 184.702V182.432L540.803 181.546Z" fill="white"/>
<path d="M540.803 186.496V186.107V184.205L542.313 185.069V186.971V187.36V190.019L540.803 189.133V186.496Z" fill="white"/>
<path d="M542.529 161.314V163.605L544.039 164.47V162.2L542.529 161.314Z" fill="white"/>
<path d="M542.529 163.972V166.263L544.039 167.128V164.837L542.529 163.972Z" fill="white"/>
<path d="M542.529 166.631V168.901L544.039 169.787V167.495L542.529 166.631Z" fill="white"/>
<path d="M542.529 181.027V179.903V179.514V177.245V176.877V174.586V174.218V171.927V169.29L544.039 170.155V172.813V175.083V175.451V177.742V178.109V180.401V180.768V181.914V183.038L542.529 182.173V181.027Z" fill="white"/>
<path d="M542.529 182.541V184.832L544.039 185.696V183.427L542.529 182.541Z" fill="white"/>
<path d="M542.529 185.199V187.491L544.039 188.355V186.064L542.529 185.199Z" fill="white"/>
<path d="M542.529 187.858V190.128L544.039 191.014V188.723L542.529 187.858Z" fill="white"/>
<path d="M532.93 186.107V188.398L534.44 189.263V186.972L532.93 186.107Z" fill="white"/>
<path d="M532.93 188.766V191.035L534.44 191.922V189.63L532.93 188.766Z" fill="white"/>
<path d="M532.93 191.425V193.694L534.44 194.559V192.289L532.93 191.425Z" fill="white"/>
<path d="M535.626 187.663V189.954L537.136 190.819V188.549L535.626 187.663Z" fill="white"/>
<path d="M535.626 190.322V192.613L537.136 193.478V191.186L535.626 190.322Z" fill="white"/>
<path d="M535.626 192.981V195.251L537.136 196.137V193.846L535.626 192.981Z" fill="white"/>
<path d="M537.352 188.657V190.949L538.862 191.813V189.543L537.352 188.657Z" fill="white"/>
<path d="M537.352 191.316V193.608L538.862 194.472V192.203L537.352 191.316Z" fill="white"/>
<path d="M537.352 193.975V196.266L538.862 197.131V194.84L537.352 193.975Z" fill="white"/>
<path d="M539.078 189.673V191.943L540.587 192.808V190.538L539.078 189.673Z" fill="white"/>
<path d="M539.078 192.311V194.602L540.587 195.466V193.197L539.078 192.311Z" fill="white"/>
<path d="M539.078 194.969V197.261L540.587 198.125V195.834L539.078 194.969Z" fill="white"/>
<path d="M540.803 194.018V193.327V190.668L542.313 191.533V194.191V194.883V196.461L540.803 195.596V194.018Z" fill="white"/>
<path d="M540.803 195.964V198.255L542.313 199.12V196.85L540.803 195.964Z" fill="white"/>
<path d="M542.529 191.662V193.932L544.039 194.818V192.527L542.529 191.662Z" fill="white"/>
<path d="M542.529 194.321V196.59L544.039 197.455V195.185L542.529 194.321Z" fill="white"/>
<path d="M509.568 171.863L513.343 169.658L513.386 152.841L509.611 155.024L509.568 171.863Z" fill="#B3B3B3"/>
<path d="M509.611 155.024L513.386 152.841L503.269 146.983L499.494 149.166L509.611 155.024Z" fill="white"/>
<path d="M499.494 149.167L499.451 166.005L509.568 171.863L509.611 155.024L499.494 149.167Z" fill="#CCCCCC"/>
<path d="M505.146 174.414L508.921 172.209L508.964 155.392L505.211 157.575L505.146 174.414Z" fill="#B3B3B3"/>
<path d="M505.211 157.575L508.964 155.392L498.847 149.534L495.094 151.739L505.211 157.575Z" fill="white"/>
<path d="M495.094 151.738L495.029 168.555L505.146 174.413L505.211 157.575L495.094 151.738Z" fill="#CCCCCC"/>
<path d="M500.745 176.964L504.499 174.759L504.564 157.942L500.789 160.147L500.745 176.964Z" fill="#B3B3B3"/>
<path d="M500.788 160.147L504.563 157.942L494.446 152.084L490.672 154.289L500.788 160.147Z" fill="white"/>
<path d="M490.671 154.289L490.628 171.106L500.745 176.964L500.788 160.146L490.671 154.289Z" fill="#CCCCCC"/>
<path d="M496.323 179.516L500.098 177.332L500.141 160.494L496.366 162.698L496.323 179.516Z" fill="#B3B3B3"/>
<path d="M496.366 162.698L500.141 160.493L490.024 154.657L486.249 156.84L496.366 162.698Z" fill="white"/>
<path d="M486.249 156.84L486.206 173.657L496.323 179.515L496.366 162.698L486.249 156.84Z" fill="#CCCCCC"/>
<path d="M491.901 182.065L495.676 179.882L495.719 163.065L491.944 165.248L491.901 182.065Z" fill="#B3B3B3"/>
<path d="M491.944 165.248L495.719 163.065L485.602 157.207L481.827 159.39L491.944 165.248Z" fill="white"/>
<path d="M481.827 159.39L481.784 176.229L491.901 182.065L491.944 165.248L481.827 159.39Z" fill="#CCCCCC"/>
<path d="M487.479 184.638L491.254 182.433L491.297 165.616L487.544 167.799L487.479 184.638Z" fill="#B3B3B3"/>
<path d="M487.544 167.799L491.297 165.616L481.18 159.758L477.427 161.963L487.544 167.799Z" fill="white"/>
<path d="M477.427 161.963L477.362 178.78L487.479 184.638L487.544 167.799L477.427 161.963Z" fill="#CCCCCC"/>
<path d="M519.728 203.984L535.087 195.1L531.355 192.938L519.728 200.137C519.232 201.887 519.232 203.184 519.728 204.006V203.984Z" fill="#661C1E"/>
<path d="M519.275 203.595L534.353 194.862V190.993L518.995 199.877C518.498 201.628 518.8 202.752 519.275 203.573V203.595Z" fill="white"/>
<path d="M497.725 191.274L519.728 204.006C519.253 202.903 519.253 201.606 519.728 200.136L497.725 187.405C497.272 188.983 497.272 190.28 497.725 191.274Z" fill="#661C1E"/>
<path d="M497.725 187.405L519.728 200.115L535.087 191.231L513.084 178.499L497.725 187.405Z" fill="#52AABF"/>
<path d="M520.051 198.645L535.41 189.761L531.678 187.599L520.051 194.797C519.555 196.548 519.555 197.845 520.051 198.666V198.645Z" fill="#A61539"/>
<path d="M519.598 198.256L534.676 189.523V185.654L519.318 194.538C518.822 196.289 519.124 197.413 519.598 198.234V198.256Z" fill="white"/>
<path d="M495.956 184.724L520.03 198.645C519.555 197.542 519.555 196.245 520.03 194.776L495.956 180.855C495.503 182.433 495.503 183.73 495.956 184.724Z" fill="#FBB03B"/>
<path d="M495.956 180.855L520.051 194.776L535.41 185.891L511.336 171.949L495.956 180.855Z" fill="#661C1E"/>
<path d="M519.577 194.105L534.935 185.221L531.204 183.06L519.577 190.258C519.08 192.009 519.08 193.305 519.577 194.127V194.105Z" fill="#176C80"/>
<path d="M519.124 193.694L534.202 184.962V181.092L518.843 189.976C518.347 191.727 518.649 192.851 519.124 193.673V193.694Z" fill="white"/>
<path d="M495.503 180.163L519.577 194.083C519.102 192.981 519.102 191.684 519.577 190.214L495.503 176.293C495.05 177.871 495.05 179.168 495.503 180.163Z" fill="#52AABF"/>
<path d="M495.503 176.294L519.577 190.236L534.957 181.33L510.862 167.41L495.503 176.294Z" fill="#176C80"/>
<path d="M520.052 188.744L535.41 179.86L531.679 177.699L520.052 184.897C519.555 186.648 519.555 187.945 520.052 188.766V188.744Z" fill="#C7363B"/>
<path d="M519.598 188.355L534.677 179.623V175.753L519.318 184.638C518.822 186.388 519.124 187.512 519.598 188.334V188.355Z" fill="white"/>
<path d="M498.07 176.035L520.073 188.766C519.598 187.664 519.598 186.367 520.073 184.897L498.07 172.166C497.617 173.743 497.617 175.04 498.07 176.035Z" fill="#C7363B"/>
<path d="M498.07 172.165L520.052 184.876L535.432 175.991L513.429 163.26L498.07 172.165Z" fill="#FBB03B"/>
</g>
<path d="M417.938 152.668C418.909 154.375 392.98 146.27 371.883 134.467C371.883 134.467 365.584 128.091 361.744 121.952C350.333 103.686 334.478 84.2754 339.483 66.1613C339.483 66.1613 351.433 61.7517 365.498 89.6361L382 117.391L419.62 141.384C416.622 144.929 415.975 148.237 417.959 152.646L417.938 152.668Z" fill="#0E7DE5"/>
<path d="M273.992 317.337C272.439 322.33 272.115 323.8 272.784 327.496C273.518 329.463 274.273 330.35 275.092 333.052C276.041 336.402 275.912 342.001 280.873 345.329C286.806 350.02 298.26 350.236 301.862 345.243C301.862 342.8 300.244 337.418 297.246 333.052L291.422 322.222L291.788 312.063L278.91 303.762L273.992 317.337Z" fill="#181B21"/>
<path d="M331.221 301.146C329.495 303.092 329.128 307.847 329.064 313.273C330.099 318.828 335.276 318.828 339.612 319.866C348.003 321.876 351.714 328.598 362.995 329.485C369.704 330.003 374.299 328.923 376.046 324.772C376.413 322.827 375.421 320.752 373.199 318.525C373.199 318.525 358.358 310.398 357.991 310.095C357.624 309.793 351.11 304.194 351.023 303.654C350.937 303.113 349.341 291.095 349.341 291.095L332.774 289.776L331.199 301.146H331.221Z" fill="#181B21"/>
<path d="M338.296 233.943C330.423 260.746 330.66 300.909 330.66 300.909C330.876 301.708 331.199 302.379 331.652 302.984C336.204 309.209 351.563 304.454 351.563 304.454C351.11 286.448 358.53 268.42 363.707 234.418C366.145 218.466 364.441 200.719 361.982 186.388C360.17 175.926 357.969 167.28 356.61 162.459C355.877 159.779 355.381 158.288 355.381 158.288L350.808 160.406L331.501 169.333L320.759 174.283L333.464 217.515L338.296 233.943Z" fill="#0E7DE5"/>
<path d="M275.588 311.652C275.588 317.294 290.192 325.616 292.651 318.872C295.132 312.106 316.919 288.674 322.549 278.774C325.807 273.565 328.028 263.816 329.689 252.77C331.437 241.184 332.515 228.193 333.464 217.515C334.111 210.187 334.694 203.919 335.363 199.941C346.601 198.796 355.144 174.932 355.144 174.932L331.48 169.29L314.913 165.335L299.382 161.638C298.476 164.319 297.634 166.956 296.944 169.593C293.212 183.34 292.5 196.613 297.828 208.934L302.984 264.184C291.422 273.954 284.648 285.173 280.744 294.273C280.183 295.57 279.687 296.802 279.256 297.991C278.997 298.682 278.759 299.352 278.522 299.979C276.128 306.961 275.588 311.652 275.588 311.652Z" fill="#0E7DE5"/>
<g style="mix-blend-mode:multiply" opacity="0.5">
<path d="M280.744 294.273C287.474 281.173 309.391 264.637 316.941 262.995C325.051 261.244 329.452 253.181 329.689 252.77C331.437 241.184 332.515 228.193 333.464 217.515L338.296 233.943C330.423 260.746 330.66 300.909 330.66 300.909C330.876 301.708 331.199 302.379 331.652 302.984C332.192 292.738 337.412 268.636 341.338 252.77C345.242 236.904 342.373 233.965 343.473 218.423C344.595 202.881 361.982 186.388 361.982 186.388C360.17 175.926 357.969 167.28 356.61 162.459L350.808 160.406L344.854 158.288L314.935 165.378L296.966 169.636C293.234 183.384 292.522 196.656 297.85 208.977L303.006 264.227C291.443 273.997 284.67 285.216 280.765 294.316L280.744 294.273Z" fill="#57ADFF"/>
</g>
<g style="mix-blend-mode:multiply" opacity="0.5">
<path d="M278.522 299.979C278.759 299.525 278.975 298.942 279.191 298.207C279.191 298.142 279.234 298.056 279.255 297.991C278.997 298.682 278.759 299.353 278.522 299.979Z" fill="#662D91"/>
</g>
<path d="M283.44 128.545C283.699 128.955 283.936 129.366 284.174 129.755C285.339 131.722 286.374 133.646 287.323 135.527C298.799 158.158 295.93 173.743 295.93 173.743C308.247 177.051 318.321 178.023 326.518 177.699C341.381 177.094 349.923 172.122 354.108 168.685C356.395 166.805 357.409 165.378 357.409 165.378C357.409 165.378 357.538 158.98 357.495 149.404C357.473 146.27 357.409 142.833 357.322 139.136C357.042 126.21 356.287 110.56 354.54 97.1152C354.518 96.8991 354.475 96.6613 354.453 96.4668C352.361 80.5792 348.758 67.8042 342.826 66.4208C325.979 62.357 306.824 71.1547 306.824 71.1547L283.44 86.0047C283.44 86.0047 267.499 102.217 283.44 128.566V128.545Z" fill="#0E7DE5"/>
<g style="mix-blend-mode:multiply" opacity="0.5">
<path d="M287.323 135.505C298.799 158.137 295.93 173.722 295.93 173.722C308.247 177.029 318.321 178.002 326.518 177.677C326.54 177.677 347.766 168.772 347.766 168.772L357.322 139.115L366.253 111.403L354.432 96.4235L347.766 87.9717C347.766 87.9717 347.766 112.419 338.663 122.233C329.625 132.025 307.687 146.832 307.687 146.832L285.964 119.444L284.174 129.733C285.339 131.7 286.374 133.624 287.323 135.505Z" fill="#57ADFF"/>
</g>
<path d="M329.452 172.122C331.07 172.122 332.386 170.804 332.386 169.182V132.652C332.386 131.03 331.07 129.712 329.452 129.712C327.834 129.712 326.518 131.03 326.518 132.652V169.182C326.518 170.804 327.834 172.122 329.452 172.122Z" fill="#999999"/>
<path d="M398.502 276.504C398.502 278.601 400.206 280.308 402.298 280.308C404.391 280.308 406.095 278.601 406.095 276.504C406.095 274.407 404.391 272.7 402.298 272.7C400.206 272.7 398.502 274.407 398.502 276.504Z" fill="#333333"/>
<path d="M339.633 293.905C339.633 296.002 341.338 297.71 343.43 297.71C345.522 297.71 347.227 296.002 347.227 293.905C347.227 291.809 345.522 290.101 343.43 290.101C341.338 290.101 339.633 291.809 339.633 293.905Z" fill="#333333"/>
<path d="M293.945 267.167C293.945 269.263 295.649 270.971 297.742 270.971C299.834 270.971 301.538 269.263 301.538 267.167C301.538 265.07 299.834 263.362 297.742 263.362C295.649 263.362 293.945 265.07 293.945 267.167Z" fill="#333333"/>
<path d="M322.355 232.386C322.355 234.483 324.059 236.191 326.151 236.191C328.244 236.191 329.948 234.483 329.948 232.386C329.948 230.29 328.244 228.582 326.151 228.582C324.059 228.582 322.355 230.29 322.355 232.386Z" fill="#333333"/>
<path d="M389.118 239.347C389.118 241.444 390.822 243.151 392.914 243.151C395.007 243.151 396.711 241.444 396.711 239.347C396.711 237.25 395.007 235.542 392.914 235.542C390.822 235.542 389.118 237.25 389.118 239.347Z" fill="#333333"/>
<path d="M341.424 255.04L322.894 230.225V228.582L328.351 228.625L352.166 251.884C353.784 251.884 355.402 252.014 356.955 252.316L392.03 234.462L396.344 235.326V236.969L365.476 257.266C366.015 258.152 366.274 259.104 366.231 260.033L406.44 272.181V273.824L403.657 276.98L360.752 266.258C359.414 266.842 357.969 267.274 356.437 267.534L346.212 293.905L340.172 293.343V291.7L344.53 266.431C343.883 266.172 343.236 265.869 342.653 265.523C342.071 265.178 341.553 264.81 341.1 264.443L294.571 266.972L293.621 263.47V261.827L339.202 257.547C339.655 256.661 340.41 255.818 341.424 255.04Z" fill="#333333"/>
<path d="M341.424 248.469L322.894 228.582L328.351 226.983L352.166 245.313C353.784 245.313 355.402 245.443 356.955 245.745L392.03 232.819L396.344 235.327L365.476 250.695C366.015 251.582 366.274 252.533 366.231 253.462L406.44 272.182L403.657 275.337L360.752 259.688C359.414 260.271 357.969 260.704 356.437 260.963L346.213 292.263L340.173 291.701L344.53 259.839C343.883 259.58 343.236 259.277 342.653 258.931C342.071 258.585 341.553 258.218 341.1 257.85L294.571 265.308L293.622 261.806L339.202 250.955C339.655 250.069 340.41 249.226 341.424 248.447V248.469Z" fill="#999999"/>
<path d="M346.385 217.018C346.709 216.694 347.119 216.37 347.593 216.089C350.484 214.424 355.165 214.424 358.055 216.089C358.551 216.37 358.94 216.672 359.263 217.018H360.212V251.949C360.212 253.052 359.479 254.132 358.034 254.975C355.143 256.64 350.462 256.64 347.572 254.975C346.126 254.132 345.393 253.052 345.393 251.949V217.018H346.342H346.385Z" fill="#4D4D4D"/>
<path d="M352.835 221.298C356.921 221.298 360.234 219.381 360.234 217.018C360.234 214.654 356.921 212.738 352.835 212.738C348.749 212.738 345.436 214.654 345.436 217.018C345.436 219.381 348.749 221.298 352.835 221.298Z" fill="#4D4D4D"/>
<path d="M343.387 192.506C344.444 191.425 346.083 190.474 348.391 189.847C351.304 189.047 354.367 189.047 357.279 189.847C359.587 190.474 361.226 191.425 362.283 192.506H363.686V219.071C363.686 221.298 361.658 223.524 357.581 224.735C354.496 225.664 351.174 225.664 348.089 224.735C344.012 223.524 341.985 221.298 341.985 219.071V192.506H343.387Z" fill="#999999"/>
<path d="M348.089 186.842C339.957 189.263 339.957 195.748 348.089 198.169C351.174 199.098 354.496 199.098 357.581 198.169C365.713 195.748 365.713 189.263 357.581 186.842C354.496 185.913 351.174 185.913 348.089 186.842Z" fill="#4D4D4D"/>
<path d="M313.144 149.987C314.201 149.987 315.301 149.706 316.272 149.144L360.86 123.356C363.858 121.605 364.894 117.758 363.168 114.753C361.442 111.749 357.581 110.711 354.583 112.44L309.995 138.228C306.996 139.957 305.961 143.826 307.687 146.831C308.851 148.863 310.965 149.987 313.144 149.987Z" fill="#181B21"/>
<path d="M347.248 236.796L286.525 201.671C285.619 201.152 285.058 200.028 285.058 198.428V191.014C285.058 187.815 287.301 183.924 290.063 182.325L350.355 147.437C351.735 146.637 352.986 146.55 353.892 147.091L414.616 182.216L347.227 236.818L347.248 236.796Z" fill="#1A1A1A"/>
<path d="M350.786 236.451L411.078 201.563C413.839 199.963 416.083 196.072 416.083 192.873V185.459C416.083 182.26 413.839 180.963 411.078 182.563L350.786 217.45C348.025 219.05 345.781 222.941 345.781 226.14V233.554C345.781 236.753 348.025 238.05 350.786 236.451Z" fill="#181B21"/>
<path d="M430.578 40.8708L413.623 176.877L403.334 186.324L342.61 151.198C341.338 150.441 340.906 148.28 341.985 145.621C360.148 100.012 374.061 64.2158 376.456 24.205C376.65 20.9194 378.937 17.115 381.698 15.537C383.143 14.694 384.459 14.6292 385.43 15.1696L430.578 40.8708Z" fill="#333333"/>
<path d="M406.268 186.021L413.818 181.655C415.759 180.531 417.593 178.326 418.628 175.84C431.398 145.146 436.446 96.791 432.089 43.7242C431.851 40.7412 429.565 39.682 426.847 41.2384C424.086 42.8379 421.799 46.6207 421.605 49.9063C419.21 89.9172 420.85 135.116 402.708 180.725C401.047 184.919 403.01 187.88 406.268 185.999V186.021Z" fill="#181B21"/>
<path d="M370.394 90.6304L408.834 112.873C408.23 118.882 407.454 124.913 406.483 130.987L364.807 106.864C366.77 101.417 368.647 96.0127 370.394 90.6304Z" fill="#181B21"/>
<path d="M396.021 171.754L354.302 147.631L350.031 145.145C352.037 140.087 354.022 135.115 355.941 130.187L400.982 156.256C399.559 161.422 397.898 166.588 395.999 171.754H396.021Z" fill="#181B21"/>
<path d="M384.071 23.6427C384.071 23.6427 384.071 23.5346 384.092 23.4697L391.319 27.6632C391.319 27.5335 414.616 40.8056 414.616 40.8056C413.386 43.1833 412.631 45.7772 412.48 48.3495C412.2 52.9321 411.984 57.5362 411.79 62.2053L381.741 44.8261C382.841 37.8659 383.639 30.8191 384.071 23.6427Z" fill="#181B21"/>
<path d="M363.448 110.56L405.793 135.05C404.779 140.8 403.549 146.572 402.061 152.343L357.408 126.512C359.5 121.13 361.528 115.812 363.47 110.56H363.448Z" fill="#181B21"/>
<path d="M376.413 70.1603L410.56 89.9171C410.215 96.1209 409.805 102.346 409.244 108.615L371.602 86.8261C373.349 81.2492 374.967 75.7155 376.413 70.1387V70.1603Z" fill="#181B21"/>
<path d="M381.072 48.9116L411.617 66.5717C411.574 67.7822 411.509 68.9927 411.466 70.2248C411.25 75.3045 411.056 80.4275 410.797 85.572L377.405 66.2475C378.829 60.4977 380.058 54.7263 381.072 48.9116Z" fill="#181B21"/>
<path d="M389.96 210.123C391.577 210.123 392.893 208.804 392.893 207.183V170.652C392.893 169.031 391.577 167.712 389.96 167.712C388.342 167.712 387.026 169.031 387.026 170.652V207.183C387.026 208.804 388.342 210.123 389.96 210.123Z" fill="#666666"/>
<path d="M368.798 189.198C369.855 189.198 370.955 188.917 371.926 188.355L416.514 162.568C419.512 160.838 420.548 156.969 418.822 153.965C417.096 150.96 413.235 149.922 410.237 151.652L365.649 177.439C362.65 179.169 361.615 183.038 363.341 186.043C364.505 188.074 366.619 189.198 368.798 189.198Z" fill="#181B21"/>
<path d="M324.706 86.5878C324.081 87.8415 323.24 88.7278 322.139 89.052C311.591 92.1647 302.941 80.1031 304.149 72.9915C305.141 65.6853 305.702 61.708 305.702 61.708L326.109 66.7445C326.109 66.7445 326.324 68.6683 326.454 71.3703C326.648 75.9744 326.583 82.8699 324.706 86.5878Z" fill="#FFA473"/>
<g style="mix-blend-mode:multiply" opacity="0.5">
<path d="M324.706 86.588C323.693 87.2797 322.571 87.6904 321.363 87.6904C311.72 87.6904 308.636 69.4683 308.636 69.4683L326.454 71.3705C326.648 75.9746 326.583 82.8701 324.706 86.588Z" fill="#FFA473"/>
</g>
<path d="M307.298 65.2531C307.298 65.2531 309.52 74.1156 313.468 77.92C317.415 81.746 323.714 83.6482 326.109 83.7779C328.503 83.9076 330.401 83.6914 331.955 81.854C333.508 80.0167 334.478 63.178 334.478 63.178C334.435 56.6716 334.327 54.7046 333.551 51.0731C332.407 45.734 328.568 33.9102 313.036 36.0285C305.551 37.0661 300.913 42.5349 299.943 49.1277C299.166 54.3804 303.372 63.7184 303.372 63.7184L307.298 65.2099V65.2531Z" fill="#FFA473"/>
<g style="mix-blend-mode:multiply" opacity="0.5">
<path d="M328.352 76.9687C318.71 76.9687 308.657 58.2494 308.657 58.2494L333.982 56.3472C334.586 70.0948 335.018 76.9903 328.352 76.9903V76.9687Z" fill="#FFA473"/>
</g>
<path d="M303.178 64.864L310.556 68.7981L311.117 64.3885C311.095 62.2701 312.864 60.5841 314.956 60.7354C318.494 60.9948 323.93 60.8219 329.129 58.2496C334.068 55.807 334.931 52.4998 334.931 52.4998C337.434 42.9024 324.814 35.5098 315.301 35.834C303.761 36.2231 299.08 43.9832 299.08 50.8354C299.08 57.0607 303.2 64.864 303.2 64.864H303.178Z" fill="#181B21"/>
<path d="M327.015 56.6067C322.851 59.0061 318.106 60.6705 313.489 61.5567C313.619 61.6432 313.748 61.7297 313.899 61.8161C321.643 66.2906 331.652 70.9596 341.791 65.1017C352.9 58.6602 343.862 53.4508 336.118 48.9547C335.945 48.8682 335.773 48.7818 335.622 48.6953C334.133 51.3973 331.221 54.2073 327.015 56.6283V56.6067Z" fill="#2EA2F6"/>
<path d="M313.878 61.7948C307.773 61.449 303.264 59.59 299.878 56.6286C299.878 56.6286 294.657 40.0493 308.851 34.6454C332.041 25.8045 335.621 48.674 335.621 48.674C334.004 55.8505 325.073 59.3955 313.899 61.8164L313.878 61.7948Z" fill="#0E7DE5"/>
<path d="M304.839 58.8768C303.825 58.358 302.402 58.4445 301.733 59.3523C301.345 59.8711 301.258 60.5412 301.345 61.1897C301.431 61.8165 301.711 62.4218 301.992 62.9838C302.488 63.9781 303.027 64.9508 303.61 65.9019C304.084 66.6585 304.688 67.4799 305.573 67.6744C306.479 67.8906 307.557 68.5174 308.032 67.7176C308.528 66.9395 308.463 64.7995 308.291 63.8916C307.902 61.9678 306.651 59.7846 304.839 58.8768Z" fill="#FFA473"/>
<path d="M291.4 191.554C291.465 191.727 294.312 199.552 294.312 199.552C294.312 199.552 292.047 205.778 293.212 208.847C294.356 211.917 295.456 215.029 295.456 215.029C295.456 215.029 296.426 216.759 298.174 215.634C298.174 215.634 299.597 218.704 301.733 217.104C301.733 217.104 303.696 219.633 305.637 217.753C305.637 217.753 307.277 220.282 309.52 218.25C311.764 216.218 311.785 216.348 311.785 216.348C311.785 216.348 309.865 215.008 308.075 213.884C307.039 212.522 312.368 201.865 311.462 201.065C310.556 200.266 308.269 198.255 306.673 197.456C305.077 196.656 300.158 188.701 300.158 188.701L291.4 191.533V191.554Z" fill="#FFA473"/>
<path d="M308.506 205.713C308.506 205.713 314.093 208.069 317.329 207.615C320.112 207.226 321.082 205.691 320.802 204.761C320.457 203.594 319.378 203.702 318.602 203.746C317.847 203.789 316.746 203.746 315.366 203.378C313.985 202.989 310.577 200.417 310.577 200.417L308.29 200.309L308.528 205.691L308.506 205.713Z" fill="#FFA473"/>
<path d="M291.4 191.554C291.465 191.727 294.312 199.552 294.312 199.552C294.312 199.552 292.047 205.778 293.212 208.847C294.356 211.917 295.456 215.029 295.456 215.029C295.456 215.029 296.426 216.759 298.174 215.634C298.174 215.634 299.597 218.704 301.733 217.104C301.733 217.104 303.696 219.633 305.637 217.753C305.637 217.753 307.277 220.282 309.52 218.25C311.764 216.218 311.785 216.348 311.785 216.348C311.785 216.348 309.865 215.008 308.075 213.884C307.039 212.522 312.368 201.865 311.462 201.065C310.556 200.266 308.269 198.255 306.673 197.456C305.077 196.656 300.158 188.701 300.158 188.701L291.4 191.533V191.554Z" fill="#F79974"/>
<path d="M308.506 205.713C308.506 205.713 314.093 208.069 317.329 207.615C320.112 207.226 321.082 205.691 320.802 204.761C320.457 203.594 319.378 203.702 318.602 203.746C317.847 203.789 316.746 203.746 315.366 203.378C313.985 202.989 310.577 200.417 310.577 200.417L308.29 200.309L308.528 205.691L308.506 205.713Z" fill="#F79974"/>
<path d="M293.989 200.742C293.773 202.709 280.14 182.325 269.894 160.406C269.894 160.406 268.491 151.544 268.966 144.324C270.347 122.817 268.815 97.7855 283.44 86.0049C283.44 86.0049 292.198 106.389 290.861 120.288L288.035 152.473L305.033 195.035C300.546 196.159 294.959 196.008 293.989 200.742Z" fill="#0E7DE5"/>
<path d="M421.303 158.591L425.121 156.386L426.394 150.852L429.047 158.936L426.674 169.269L424.323 171.949L421.497 172.425L420.893 172.295C418.93 171.841 417.722 169.896 418.175 167.929L419.815 160.774C419.944 159.844 420.505 159.044 421.303 158.591Z" fill="#FFA473"/>
<g style="mix-blend-mode:multiply" opacity="0.36">
<path d="M499.855 308.283L454.566 281.376L456.656 277.128L535.39 271.463L547.932 279.252L499.855 308.283Z" fill="#BD8A4B"/>
</g>
<path d="M499.367 305.016L545.789 278.169V237.229L499.367 264.097V305.016Z" fill="#BD8A4B"/>
<path d="M458.511 281.39L499.367 305.016V264.097L458.511 240.45V281.39Z" fill="#EFB972"/>
<path d="M458.511 240.45L477.559 251.474L478.961 252.295L499.367 264.098L545.767 237.229L525.382 225.427L523.958 224.627L504.933 213.603L458.511 240.45Z" fill="#FFE1B3"/>
<g style="mix-blend-mode:multiply" opacity="0.7">
<path d="M477.558 251.474L478.961 252.295L525.382 225.427L523.958 224.627L477.558 251.474Z" fill="#BD8A4B"/>
</g>
<path d="M102.155 294.792C99.7385 296.629 98.4227 300.26 97.4951 304.497C98.8325 308.15 101.184 310.895 104.441 312.819L112.185 323.454C114.256 326.199 117.384 328.037 121.008 329.463C124.459 330.306 128.105 330.328 131.923 329.658C136.884 328.037 138.438 326.329 140.012 323.324C139.128 320.32 134.965 316.883 129.593 313.619L122.13 304.605L121.806 295.137L108.044 288.588L102.155 294.792Z" fill="#181B21"/>
<path d="M196.249 212.846L179.552 263.557C179.38 264.011 179.186 264.465 178.97 264.897C176.382 270.258 171.442 274.862 165.445 279.228C153.408 287.961 137.165 295.7 127.285 306.313C118.549 309.555 102.996 303.049 102.996 293.56C108.367 285.886 113.113 280.071 118.398 274.862C125.322 268.031 133.174 262.217 144.607 254.543L155.544 214.143L196.249 212.846Z" fill="#0E7DE5"/>
<g style="mix-blend-mode:multiply" opacity="0.5">
<path d="M196.249 212.846L179.553 263.557C179.38 264.011 179.186 264.465 178.97 264.897L165.445 279.228L153.128 268.096L118.398 274.862C125.322 268.031 133.174 262.217 144.607 254.543L155.544 214.143L196.249 212.846Z" fill="#0A5063"/>
</g>
<path d="M194.394 150.419L247.998 199.984C251.558 198.32 258.159 192.829 259.992 188.614L200.671 118.752C195.105 113.089 188.893 109.738 182.141 109.349L194.372 150.441L194.394 150.419Z" fill="#0E7DE5"/>
<path d="M196.249 212.846C189.195 219.763 186.067 224.713 182.378 228.863C180.243 231.306 177.956 233.424 174.742 235.499C162.446 243.367 161.799 255.061 148.166 243.475C148.123 243.454 148.037 243.367 147.95 243.324C132.246 233.402 131.642 220.454 133.347 208.047L129.917 193.089L126.681 178.995L126.163 174.261L126.012 172.77L122.194 137.687C123.726 135.937 125.3 134.186 126.918 132.478C128.644 130.662 130.413 128.89 132.246 127.139C139.02 120.676 146.462 114.731 154.508 109.349H182.184C188.548 115.337 192.021 124.891 193.897 136.455C193.897 136.455 196.27 198.255 196.27 212.846H196.249Z" fill="#0E7DE5"/>
<path d="M169.263 129.409C168.616 130.685 167.753 131.614 166.632 131.938C155.781 135.138 146.915 122.752 148.145 115.446C149.159 107.945 149.741 103.838 149.741 103.838L170.709 109.026C170.709 109.026 170.946 110.993 171.054 113.781C171.269 118.515 171.183 125.583 169.263 129.409Z" fill="#FFA473"/>
<g style="mix-blend-mode:multiply" opacity="0.5">
<path d="M169.263 129.409C168.228 130.122 167.085 130.555 165.833 130.555C155.932 130.555 152.761 111.857 152.761 111.857L171.054 113.802C171.269 118.536 171.183 125.605 169.263 129.431V129.409Z" fill="#FFB294"/>
</g>
<path d="M151.381 107.491C151.381 107.491 153.646 116.591 157.723 120.504C161.778 124.438 168.249 126.405 170.709 126.513C173.168 126.621 175.109 126.426 176.705 124.546C178.302 122.665 179.294 105.351 179.294 105.351C179.251 98.6716 179.143 96.6397 178.345 92.9218C177.18 87.4313 173.211 75.2833 157.27 77.4881C149.569 78.5473 144.823 84.1674 143.809 90.9547C143.011 96.3371 147.325 105.934 147.325 105.934L151.359 107.469L151.381 107.491Z" fill="#FFA473"/>
<g style="mix-blend-mode:multiply" opacity="0.5">
<path d="M172.995 119.531C163.094 119.531 152.761 100.293 152.761 100.293L178.776 98.3257C179.402 112.441 179.855 119.509 172.995 119.509V119.531Z" fill="#FFB294"/>
</g>
<path d="M147.153 107.08L154.724 111.122L155.285 106.583C155.263 104.421 157.075 102.67 159.233 102.843C162.856 103.124 168.443 102.93 173.793 100.293C178.862 97.7851 179.747 94.3915 179.747 94.3915C182.314 84.5347 169.349 76.9475 159.599 77.2717C147.757 77.6608 142.946 85.6371 142.925 92.6838C142.925 99.0821 147.153 107.08 147.153 107.08Z" fill="#181B21"/>
<path d="M171.614 98.6067C167.343 101.071 162.468 102.779 157.722 103.686C157.873 103.773 157.981 103.859 158.132 103.946C166.092 108.55 176.36 113.349 186.779 107.318C198.19 100.703 188.914 95.3427 180.955 90.7385C180.782 90.6304 180.61 90.5656 180.437 90.4575C178.905 93.246 175.929 96.0992 171.593 98.6067H171.614Z" fill="#2EA2F6"/>
<path d="M158.132 103.946C151.877 103.6 147.239 101.676 143.744 98.6281C143.744 98.6281 138.373 81.5948 152.955 76.0396C176.77 66.9609 180.459 90.4357 180.459 90.4357C178.798 97.8067 169.63 101.46 158.132 103.924V103.946Z" fill="#0E7DE5"/>
<path d="M148.835 100.941C147.778 100.422 146.333 100.487 145.642 101.417C145.254 101.935 145.146 102.649 145.254 103.297C145.362 103.946 145.621 104.551 145.923 105.156C146.419 106.172 146.98 107.188 147.584 108.139C148.08 108.917 148.684 109.76 149.59 109.955C150.517 110.171 151.618 110.82 152.135 109.998C152.631 109.198 152.588 106.994 152.394 106.064C152.006 104.075 150.712 101.849 148.856 100.92L148.835 100.941Z" fill="#FFA473"/>
<path d="M201.987 373.235C202.008 378.898 202.44 384.129 204.338 387.739C205.74 389.533 207.682 390.657 209.904 391.414C211.996 394.548 214.175 397.164 216.785 397.877C224.443 400.774 238.464 396.234 240.556 389.879C238.464 385.945 234.732 382.076 229.663 379.828L220.107 370.555L217.173 359.941L200.951 363.832L201.987 373.214V373.235Z" fill="#181B21"/>
<path d="M223.148 368.502C220.042 375.484 212.772 378.056 200.822 375.656C199.01 371.506 197.241 367.356 195.537 363.184C187.404 343.276 180.502 323.26 174.936 303.049L148.145 243.476L146.354 239.542L142.471 230.939L161.864 226.205L179.38 221.925C180.372 224.259 181.343 226.615 182.27 228.95C183.025 230.744 183.737 232.517 184.449 234.311L188.289 244.254L188.526 244.816C190.834 250.976 192.97 257.137 194.933 263.297C198.427 274.127 201.34 284.913 203.54 295.678L223.127 368.502H223.148Z" fill="#0E7DE5"/>
<g style="mix-blend-mode:multiply" opacity="0.5">
<path d="M195.515 363.163C187.383 343.276 180.48 323.26 174.915 303.049L148.123 243.476C148.123 243.476 147.994 243.368 147.907 243.324C132.203 233.403 131.599 220.455 133.304 208.047L129.874 193.089L126.638 178.996L140.961 152.495L152.718 162.719L198.341 143.762L194.76 130.857L219.287 154.008L184.449 234.332L188.289 244.276L188.526 244.838C190.834 250.998 192.97 257.159 194.933 263.319L173.318 260.012L180.912 303.071L195.515 363.184V363.163Z" fill="#57ADFF"/>
</g>
<path d="M210.335 262.822L150.345 228.107V175.191L210.335 209.906V262.822Z" fill="#BD8A4B"/>
<path d="M263.141 232.257L210.335 262.822V209.907L263.141 179.342V232.257Z" fill="#EFB972"/>
<path d="M263.141 179.341L238.529 193.586L236.695 194.645L210.335 209.906L150.345 175.191L176.705 159.93L178.539 158.871L203.13 144.626L263.141 179.341Z" fill="#FFE1B3"/>
<g style="mix-blend-mode:multiply" opacity="0.7">
<path d="M238.529 193.587L236.695 194.646L176.705 159.931L178.539 158.872L238.529 193.587Z" fill="#BD8A4B"/>
</g>
<path d="M260.273 204.891L262.991 202.362V197.585L266.679 203.724V212.673L265.256 215.332L263.012 216.239H262.494C260.812 216.239 259.431 214.856 259.431 213.17V206.966C259.367 206.188 259.669 205.41 260.251 204.891H260.273Z" fill="#FFA473"/>
<path d="M184.514 235.91L195.731 242.676C198.535 244.708 207.164 249.074 207.164 249.074C209.256 249.074 211.759 247.821 215.318 247.172C218.618 246.61 219.589 244.103 216.698 243.865C222.113 243.303 222.436 240.579 218.963 240.363C222.242 239.671 222.803 236.948 219.654 236.883C222.631 235.154 221.509 232.754 217.842 234.181L213.592 235.002L208.07 234.959L206.43 231.868L208.005 229.987L211.219 229.188C213.506 228.02 213.851 226.118 211.931 226.14L205.05 227.113C200.692 229.274 201.771 227.026 199.722 230.593L189.022 226.161L184.557 235.953L184.514 235.91Z" fill="#FFA473"/>
<path d="M118.398 165.335C122.561 173.722 131.168 195.316 145.081 210.577C163.892 226.702 180.07 236.17 194.243 241.79C192.689 238.893 190.144 231.414 196.27 229.145L154.638 186.626L142.493 156.472C138.394 143.459 128.817 133.797 122.194 137.666C117.621 140.325 113.07 150.852 118.398 165.356V165.335Z" fill="#0E7DE5"/>
</svg>
