<svg width="546" height="297" viewBox="0 0 546 297" fill="none" xmlns="http://www.w3.org/2000/svg">
<g clip-path="url(#clip0_2001_179)">
<path d="M372.5 229.5L368 227.5L21 169.5L16 172L82 210L103 198L127 213L125.5 239.5L120 241L150 258L163.5 249.5L195 268L198 267.5L182.5 279C180.1 279 180.833 280 181.5 280.5L206 295C208.4 296.6 210.667 296.333 211.5 296L224.5 289C226.5 287.8 226.667 285.833 226.5 285L228 284L276.5 256.5L302 271L372.5 229.5Z" fill="#676767" fill-opacity="0.3"/>
<path d="M142.224 174.488L233.29 122.018V57.9097L142.224 110.38V174.488Z" fill="#EFB972"/>
<path d="M77.9818 137.476L142.224 174.488V110.38L77.9818 73.3675V137.476Z" fill="#BD8A4B"/>
<path d="M77.9818 73.3929L107.923 90.6216L110.154 91.9118L142.224 110.38L233.264 57.9098L201.219 39.4414L198.988 38.1511L169.047 20.9224L77.9818 73.3929Z" fill="#FFE1B3"/>
<path d="M107.923 90.6215L110.154 91.9118L201.219 39.4414L198.988 38.1511L107.923 90.6215Z" fill="#BD8A4B"/>
<path d="M81.9113 208.591L17.1111 171.25V114.327L81.9113 151.668V208.591Z" fill="#BD8A4B"/>
<path d="M138.954 175.728L81.9114 208.591V151.668L138.954 118.805V175.728Z" fill="#EFB972"/>
<path d="M138.954 118.805L112.385 134.136L110.407 135.275L81.9113 151.668L17.1111 114.327L45.5816 97.933L47.5591 96.7946L74.1536 81.4633L138.954 118.805Z" fill="#FFE1B3"/>
<g style="mix-blend-mode:multiply" opacity="0.7">
<path d="M112.385 134.136L110.407 135.275L45.5817 97.933L47.5591 96.7946L112.385 134.136Z" fill="#BD8A4B"/>
</g>
<path d="M158.45 97.9077L100.697 64.6141V39.8968L158.45 73.1652V97.9077Z" fill="#BD8A4B"/>
<path d="M209.306 68.6114L158.45 97.9078V73.1653L209.306 43.8688V68.6114Z" fill="#EFB972"/>
<path d="M209.306 43.894L185.602 57.5303L183.853 58.5422L158.45 73.1651L100.697 39.8967L126.075 25.2739L127.85 24.2619L151.529 10.6003L209.306 43.894Z" fill="#FFE1B3"/>
<g style="mix-blend-mode:multiply" opacity="0.7">
<path d="M185.602 57.5303L183.853 58.5422L126.075 25.2739L127.85 24.2619L185.602 57.5303Z" fill="#BD8A4B"/>
</g>
<path d="M155.762 57.8593L130.841 43.4893V15.4579L155.762 29.8025V57.8593Z" fill="#BD8A4B"/>
<path d="M183.853 41.6677L155.762 57.8591V29.8024L183.853 13.6362V41.6677Z" fill="#EFB972"/>
<path d="M183.853 13.6363L170.771 21.1754L169.782 21.732L155.762 29.8277L130.867 15.4578L144.886 7.38738L145.85 6.83081L158.957 -0.733643L183.853 13.6363Z" fill="#FFE1B3"/>
<path d="M170.771 21.1754L169.782 21.732L144.886 7.38739L145.85 6.83081L170.771 21.1754Z" fill="#BD8A4B"/>
<path d="M85.9677 135.73L40.714 109.647V69.9016L85.9677 95.985V135.73Z" fill="#BD8A4B"/>
<path d="M125.796 112.784L85.9677 135.73V95.9849L125.796 73.0133V112.784Z" fill="#EFB972"/>
<path d="M125.796 73.0386L107.238 83.7149L105.844 84.5244L85.9677 95.985L40.714 69.9015L60.5901 58.441L61.9591 57.6567L80.5423 46.9552L125.796 73.0386Z" fill="#FFE1B3"/>
<path d="M107.238 83.7148L105.844 84.5244L60.5901 58.4409L61.9591 57.6567L107.238 83.7148Z" fill="#BD8A4B"/>
<path d="M177.008 239.456L282.245 178.814V104.739L177.008 165.381V239.456Z" fill="#EFB972"/>
<path d="M102.776 196.676L177.008 239.456V165.381L102.776 122.6V196.676Z" fill="#BD8A4B"/>
<path d="M102.802 122.625L137.382 142.535L139.943 144.028L177.033 165.381L282.245 104.738L245.18 83.386L242.619 81.9186L208.039 61.9829L102.802 122.625Z" fill="#FFE1B3"/>
<path d="M137.382 142.535L139.943 144.028L245.18 83.386L242.619 81.9186L137.382 142.535Z" fill="#BD8A4B"/>
<path d="M301.969 266.172L227.053 223.012V157.234L301.969 200.394V266.172Z" fill="#BD8A4B"/>
<path d="M367.884 228.198L301.969 266.172V200.395L367.884 162.421V228.198Z" fill="#EFB972"/>
<path d="M367.884 162.421L337.157 180.13L334.876 181.445L301.943 200.395L227.078 157.234L259.985 138.285L262.267 136.97L292.969 119.26L367.884 162.421Z" fill="#FFE1B3"/>
<g style="mix-blend-mode:multiply" opacity="0.7">
<path d="M337.157 180.13L334.876 181.446L259.985 138.285L262.267 136.97L337.157 180.13Z" fill="#BD8A4B"/>
</g>
<path d="M149.272 256.812L167.323 246.414L162.937 243.884L149.272 252.308C148.689 254.358 148.689 255.876 149.272 256.837V256.812Z" fill="#176C80"/>
<path d="M148.74 256.356L166.461 246.135V241.607L148.41 252.005C147.827 254.054 148.182 255.37 148.74 256.331V256.356Z" fill="white"/>
<path d="M120.979 240.519L149.272 256.812C148.714 255.521 148.714 254.003 149.272 252.283L120.979 235.99C120.447 237.837 120.447 239.355 120.979 240.519Z" fill="#52AABF"/>
<path d="M120.979 235.99L149.272 252.283L167.323 241.885L139.03 225.567L120.979 235.99Z" fill="#176C80"/>
<path d="M149.5 249.981L167.551 239.583L163.165 237.053L149.5 245.478C148.917 247.527 148.917 249.045 149.5 250.006V249.981Z" fill="#661C1E"/>
<path d="M148.968 249.5L166.689 239.279V234.751L148.638 245.149C148.055 247.198 148.41 248.514 148.968 249.475V249.5Z" fill="white"/>
<path d="M123.641 235.08L149.5 249.981C148.943 248.691 148.943 247.173 149.5 245.452L123.641 230.551C123.109 232.398 123.109 233.916 123.641 235.08Z" fill="#661C1E"/>
<path d="M123.641 230.551L149.5 245.452L167.551 235.029L141.717 220.153L123.641 230.551Z" fill="#52AABF"/>
<path d="M149.728 244.44L167.779 234.042L163.393 231.512L149.728 239.937C149.145 241.986 149.145 243.504 149.728 244.466V244.44Z" fill="#A61539"/>
<path d="M149.196 243.985L166.917 233.764V229.236L148.866 239.634C148.283 241.683 148.638 242.998 149.196 243.96V243.985Z" fill="white"/>
<path d="M121.435 228.148L149.728 244.44C149.171 243.15 149.171 241.632 149.728 239.912L121.435 223.619C120.903 225.466 120.903 226.984 121.435 228.148Z" fill="#FBB03B"/>
<path d="M121.435 223.619L149.728 239.937L167.779 229.514L139.486 213.221L121.435 223.619Z" fill="#661C1E"/>
<path d="M149.703 237.989L167.754 227.591L163.368 225.061L149.703 233.486C149.12 235.535 149.12 237.053 149.703 238.015V237.989Z" fill="#176C80"/>
<path d="M149.171 237.534L166.892 227.313V222.784L148.841 233.182C148.258 235.232 148.613 236.547 149.171 237.509V237.534Z" fill="white"/>
<path d="M121.41 221.697L149.703 237.989C149.145 236.699 149.145 235.181 149.703 233.461L121.41 217.168C120.878 219.015 120.878 220.533 121.41 221.697Z" fill="#52AABF"/>
<path d="M121.41 217.168L149.703 233.486L167.754 223.063L139.461 206.77L121.41 217.168Z" fill="#176C80"/>
<path d="M149.83 231.133L167.881 220.735L163.495 218.205L149.83 226.63C149.247 228.679 149.247 230.197 149.83 231.158V231.133Z" fill="#C7363B"/>
<path d="M149.298 230.652L167.019 220.431V215.903L148.968 226.301C148.385 228.35 148.74 229.666 149.298 230.627V230.652Z" fill="white"/>
<path d="M123.971 216.232L149.83 231.133C149.272 229.843 149.272 228.325 149.83 226.604L123.971 211.703C123.438 213.55 123.438 215.068 123.971 216.232Z" fill="#C7363B"/>
<path d="M123.971 211.703L149.83 226.604L167.881 216.206L142.021 201.305L123.971 211.703Z" fill="#FBB03B"/>
<path d="M149.703 225.39L167.754 214.992L163.368 212.462L149.703 220.887C149.12 222.936 149.12 224.454 149.703 225.415V225.39Z" fill="#C7363B"/>
<path d="M149.171 224.935L166.892 214.714V210.185L148.841 220.583C148.258 222.632 148.613 223.948 149.171 224.909V224.935Z" fill="white"/>
<path d="M121.41 209.097L149.703 225.39C149.145 224.1 149.145 222.582 149.703 220.862L121.41 204.569C120.878 206.416 120.878 207.934 121.41 209.097Z" fill="#176C80"/>
<path d="M121.41 204.569L149.703 220.862L167.779 210.464L139.461 194.171L121.41 204.569Z" fill="#C7363B"/>
<path d="M150.159 217.623L168.21 207.225L163.824 204.695L150.159 213.12C149.576 215.169 149.576 216.687 150.159 217.648V217.623Z" fill="#C7363B"/>
<path d="M149.627 217.143L167.348 206.922V202.393L149.298 212.791C148.714 214.84 149.069 216.156 149.627 217.117V217.143Z" fill="white"/>
<path d="M124.326 202.722L150.185 217.623C149.627 216.333 149.627 214.815 150.185 213.095L124.326 198.193C123.793 200.04 123.793 201.558 124.326 202.722Z" fill="#C7363B"/>
<path d="M124.326 198.193L150.159 213.095L168.236 202.697L142.376 187.796L124.326 198.193Z" fill="#FBB03B"/>
<path d="M149.399 214.511L167.45 204.113L163.064 201.583L149.399 210.008C148.816 212.057 148.816 213.575 149.399 214.537V214.511Z" fill="#C7363B"/>
<path d="M148.866 214.056L166.588 203.835V199.307L148.537 209.705C147.954 211.754 148.309 213.069 148.866 214.031V214.056Z" fill="white"/>
<path d="M121.106 198.219L149.399 214.511C148.841 213.221 148.841 211.703 149.399 209.983L121.106 193.69C120.573 195.537 120.573 197.055 121.106 198.219Z" fill="#176C80"/>
<path d="M121.106 193.69L149.399 209.983L167.475 199.585L139.157 183.292L121.106 193.69Z" fill="#C7363B"/>
<path d="M149.196 207.756L167.247 197.359L162.861 194.829L149.196 203.253C148.613 205.302 148.613 206.82 149.196 207.782V207.756Z" fill="#A61539"/>
<path d="M148.664 207.276L166.385 197.055V192.526L148.334 202.924C147.751 204.974 148.106 206.289 148.664 207.25V207.276Z" fill="white"/>
<path d="M120.878 191.438L149.171 207.731C148.613 206.441 148.613 204.923 149.171 203.203L120.878 186.91C120.345 188.757 120.345 190.275 120.878 191.438Z" fill="#FBB03B"/>
<path d="M120.878 186.91L149.196 203.228L167.247 192.805L138.954 176.512L120.878 186.91Z" fill="#661C1E"/>
<path d="M149.323 201.735L167.374 191.337L162.988 188.807L149.323 197.232C148.74 199.281 148.74 200.799 149.323 201.761V201.735Z" fill="#A61539"/>
<path d="M148.79 201.255L166.512 191.034V186.505L148.461 196.903C147.878 198.953 148.233 200.268 148.79 201.229V201.255Z" fill="white"/>
<path d="M121.03 185.417L149.323 201.71C148.765 200.42 148.765 198.902 149.323 197.182L121.03 180.889C120.497 182.736 120.497 184.254 121.03 185.417Z" fill="#661C1E"/>
<path d="M121.03 180.889L149.323 197.207L167.374 186.784L139.081 170.491L121.03 180.889Z" fill="#A61539"/>
<path d="M150.033 195.588L168.084 185.19L163.698 182.66L150.033 191.084C149.45 193.134 149.45 194.652 150.033 195.613V195.588Z" fill="#176C80"/>
<path d="M149.5 195.132L167.222 184.911V180.383L149.171 190.781C148.588 192.83 148.943 194.146 149.5 195.107V195.132Z" fill="white"/>
<path d="M121.714 179.295L150.007 195.588C149.45 194.297 149.45 192.779 150.007 191.059L121.714 174.766C121.182 176.613 121.182 178.131 121.714 179.295Z" fill="#52AABF"/>
<path d="M121.714 174.767L150.033 191.059L168.084 180.661L139.79 164.343L121.714 174.767Z" fill="#176C80"/>
<path d="M146.179 67.0428V99.5775L207.481 134.87V102.335L146.179 67.0428Z" fill="#BD8A4B"/>
<g style="mix-blend-mode:multiply" opacity="0.75">
<path d="M146.179 67.0428V89.9385L207.481 125.231V102.335L146.179 67.0428Z" fill="#BD8A4B"/>
</g>
<path d="M261.38 103.828L207.455 134.895V102.36L261.38 71.2678V103.828Z" fill="#EFB972"/>
<path d="M146.205 67.0428L207.456 102.335L233.163 87.5351L234.405 86.8267L236.256 85.7642L261.38 71.2931L200.129 35.9755L174.979 50.4719L173.103 51.5344L146.205 67.0428Z" fill="#FFE1B3"/>
<path d="M200.129 35.9755V68.5102L233.163 87.5351L234.405 86.8267L236.256 85.7642L261.38 71.2931L200.129 35.9755Z" fill="#BD8A4B"/>
<path d="M200.129 35.9755V68.5102L167.069 87.5351L165.827 86.8267L163.976 85.7642L138.852 71.2931L200.129 35.9755Z" fill="#EFB972"/>
<path d="M207.456 102.335L146.205 67.0176L124.934 72.0268L186.185 107.319L207.456 102.335Z" fill="#FFE1B3"/>
<path d="M273.929 48.0178L212.653 12.7255L200.129 35.9754L261.38 71.293L273.929 48.0178Z" fill="#FFE1B3"/>
<mask id="mask0_2001_179" style="mask-type:luminance" maskUnits="userSpaceOnUse" x="146" y="17" width="117" height="86">
<path d="M261.38 71.293L207.456 102.335L146.205 67.0174L146.027 17.0769L262.191 20.8718L261.38 71.293Z" fill="white"/>
</mask>
<g mask="url(#mask0_2001_179)">
<path d="M204.489 90.5203C204.489 89.989 204.844 89.4577 205.554 89.0529L215.796 83.1076C217.216 82.298 219.498 82.298 220.918 83.1076L241.554 94.9982C242.366 95.4789 242.695 96.1114 242.594 96.7186C242.594 96.6427 242.619 96.5668 242.619 96.4909V99.4256C242.619 99.9568 242.264 100.488 241.554 100.893L231.312 106.838C229.892 107.648 227.611 107.648 226.191 106.838L205.554 94.9476C204.844 94.5428 204.489 93.9862 204.489 93.455V90.5203Z" fill="#1A1A1A"/>
<path d="M241.529 94.9982C242.949 95.8078 242.949 97.1486 241.529 97.9582L231.287 103.904C229.867 104.713 227.585 104.713 226.165 103.904L205.529 92.0129C204.109 91.2033 204.109 89.8625 205.529 89.0529L215.771 83.1076C217.191 82.298 219.472 82.298 220.892 83.1076L241.529 94.9982Z" fill="white"/>
<path d="M225.43 97.9838L229.385 95.7068L227.458 82.0453L225.481 83.1837L225.43 97.9838Z" fill="#1A1A1A"/>
<path d="M225.481 83.1837L227.458 82.0452L221.602 78.6804L219.65 79.8189L225.481 83.1837Z" fill="#333333"/>
<path d="M219.65 79.8189L219.599 94.6189L225.43 97.9837L225.481 83.1837L219.65 79.8189Z" fill="#808080"/>
<path d="M253.825 61.325L253.698 104.764L194.348 70.5845L194.475 27.1459L253.825 61.325Z" fill="#E6E6E6"/>
<path d="M253.698 104.764L255.701 103.6L255.827 60.1614L253.825 61.3251L253.698 104.764Z" fill="#1A1A1A"/>
<path d="M253.825 61.3251L255.827 60.1614L196.503 25.9569L194.475 27.146L253.825 61.3251Z" fill="#808080"/>
<path d="M252.075 101.981V101.197L252.202 62.2612L196.757 30.3084L196.098 29.9289L195.971 69.6739L252.075 101.981Z" fill="#1A1A1A"/>
<path d="M252.075 101.197L252.202 62.2612L196.757 30.3084L196.655 69.2691L252.075 101.197Z" fill="#29ABE2"/>
<path d="M237.396 108.862V60.7178L221.957 51.8378L220.943 52.4197L221.957 99.9821L236.382 109.444L237.396 108.862Z" fill="white"/>
<path d="M236.382 109.444V61.325L220.943 52.4197V100.564L236.382 109.444Z" fill="#1A1A1A"/>
<path d="M222.134 55.152V57.8337L223.909 58.8457V56.164L222.134 55.152Z" fill="white"/>
<path d="M222.134 58.2638V60.9202L223.909 61.9575V59.2758L222.134 58.2638Z" fill="white"/>
<path d="M222.134 61.3757V64.0321L223.909 65.044V62.3876L222.134 61.3757Z" fill="white"/>
<path d="M222.134 64.4622V67.1439L223.909 68.1558V65.4994L222.134 64.4622Z" fill="white"/>
<path d="M222.134 67.5739V70.2556L223.909 71.2675V68.5858L222.134 67.5739Z" fill="white"/>
<path d="M222.134 70.6857V73.3421L223.909 74.3794V71.6977L222.134 70.6857Z" fill="white"/>
<path d="M222.134 73.7975V76.4539L223.909 77.4659V74.8095L222.134 73.7975Z" fill="white"/>
<path d="M222.134 76.8841V79.5658L223.909 80.5778V77.9214L222.134 76.8841Z" fill="white"/>
<path d="M222.134 79.9958V82.6776L223.909 83.6895V81.0078L222.134 79.9958Z" fill="white"/>
<path d="M222.134 83.1075V85.764L223.909 86.8012V84.1195L222.134 83.1075Z" fill="white"/>
<path d="M222.134 86.2193V88.8757L223.909 89.8877V87.2313L222.134 86.2193Z" fill="white"/>
<path d="M225.303 56.9734V59.6552L227.078 60.6671V57.9854L225.303 56.9734Z" fill="white"/>
<path d="M225.303 60.0854V62.7671L227.078 63.7791V61.0974L225.303 60.0854Z" fill="white"/>
<path d="M225.303 63.1971V65.8535L227.078 66.8908V64.2091L225.303 63.1971Z" fill="white"/>
<path d="M225.303 66.3089V68.9653L227.078 69.9773V67.3209L225.303 66.3089Z" fill="white"/>
<path d="M225.303 69.3954V72.0771L227.078 73.0891V70.4327L225.303 69.3954Z" fill="white"/>
<path d="M225.303 72.5072V75.1889L227.078 76.2009V73.5192L225.303 72.5072Z" fill="white"/>
<path d="M225.303 75.6191V78.2756L227.078 79.3128V76.6311L225.303 75.6191Z" fill="white"/>
<path d="M225.303 78.7309V81.3873L227.078 82.3993V79.7428L225.303 78.7309Z" fill="white"/>
<path d="M225.303 81.8173V84.499L227.078 85.511V82.8546L225.303 81.8173Z" fill="white"/>
<path d="M225.303 84.9292V87.6109L227.078 88.6229V85.9412L225.303 84.9292Z" fill="white"/>
<path d="M225.303 88.0409V90.6973L227.078 91.7346V89.0528L225.303 88.0409Z" fill="white"/>
<path d="M227.332 58.1373V60.819L229.081 61.831V59.1746L227.332 58.1373Z" fill="white"/>
<path d="M227.332 61.2491V63.9308L229.081 64.9428V62.2611L227.332 61.2491Z" fill="white"/>
<path d="M227.332 64.361V67.0174L229.081 68.0546V65.3729L227.332 64.361Z" fill="white"/>
<path d="M227.332 67.4727V70.1291L229.081 71.1411V68.4847L227.332 67.4727Z" fill="white"/>
<path d="M227.332 70.5593V73.241L229.081 74.2529V71.5965L227.332 70.5593Z" fill="white"/>
<path d="M227.332 73.671V76.3527L229.081 77.3647V74.683L227.332 73.671Z" fill="white"/>
<path d="M227.332 76.7828V79.4392L229.081 80.4764V77.7947L227.332 76.7828Z" fill="white"/>
<path d="M227.332 79.8945V82.5509L229.081 83.5629V80.9065L227.332 79.8945Z" fill="white"/>
<path d="M227.332 82.9811V85.6628L229.081 86.6748V84.0183L227.332 82.9811Z" fill="white"/>
<path d="M227.332 86.0928V88.7745L229.081 89.7865V87.1048L227.332 86.0928Z" fill="white"/>
<path d="M229.36 59.3263V61.9827L231.109 62.9947V60.3383L229.36 59.3263Z" fill="white"/>
<path d="M229.36 62.4129V65.0946L231.109 66.1066V63.4502L229.36 62.4129Z" fill="white"/>
<path d="M229.36 65.5247V68.2064L231.109 69.2183V66.5366L229.36 65.5247Z" fill="white"/>
<path d="M229.36 68.6365V71.293L231.109 72.3302V69.6485L229.36 68.6365Z" fill="white"/>
<path d="M229.36 71.7483V74.4047L231.109 75.4167V72.7603L229.36 71.7483Z" fill="white"/>
<path d="M229.36 74.8347V77.5164L231.109 78.5284V75.872L229.36 74.8347Z" fill="white"/>
<path d="M229.36 77.9466V80.6283L231.109 81.6403V78.9586L229.36 77.9466Z" fill="white"/>
<path d="M229.36 81.0583V83.7147L231.109 84.752V82.0703L229.36 81.0583Z" fill="white"/>
<path d="M229.36 84.17V86.8265L231.109 87.8384V85.182L229.36 84.17Z" fill="white"/>
<path d="M227.332 89.2047L229.36 90.3685V87.2567L231.109 88.2939V91.3804V92.1647V94.0621L229.613 93.2019L229.36 93.0502L227.332 91.8611V89.2047Z" fill="white"/>
<path d="M231.388 64.4115V63.5767V60.4902L233.137 61.5021V64.6139V65.4235V67.2703L231.388 66.2584V64.4115Z" fill="white"/>
<path d="M231.388 66.6884V69.3701L233.137 70.3821V67.7004L231.388 66.6884Z" fill="white"/>
<path d="M231.388 69.8002V72.4566L233.137 73.4939V70.8121L231.388 69.8002Z" fill="white"/>
<path d="M231.388 72.912V75.5685L233.137 76.5804V73.924L231.388 72.912Z" fill="white"/>
<path d="M231.388 75.9985V78.6802L233.137 79.6922V77.0358L231.388 75.9985Z" fill="white"/>
<path d="M231.388 79.1103V81.792L233.137 82.804V80.1223L231.388 79.1103Z" fill="white"/>
<path d="M231.388 82.2222V84.9039L233.137 85.9158V83.2341L231.388 82.2222Z" fill="white"/>
<path d="M231.388 85.3339V87.9903L233.137 89.0276V86.3459L231.388 85.3339Z" fill="white"/>
<path d="M231.388 91.1021V90.6467V88.4457L233.137 89.4576V91.6587V92.1141V95.2259L231.388 94.2139V91.1021Z" fill="white"/>
<path d="M233.416 61.6539V64.3103L235.165 65.3476V62.6659L233.416 61.6539Z" fill="white"/>
<path d="M233.416 64.7657V67.4221L235.165 68.4341V65.7777L233.416 64.7657Z" fill="white"/>
<path d="M233.416 67.8523V70.534L235.165 71.546V68.8896L233.416 67.8523Z" fill="white"/>
<path d="M233.416 84.7268V83.3859V82.9558V80.2741V79.844V77.1876V76.7323V74.0758V70.9641L235.165 71.976V75.0878V77.7695V78.1996V80.856V81.3114V83.9678V84.3979V85.7387V87.0796L233.416 86.0676V84.7268Z" fill="white"/>
<path d="M233.416 86.4977V89.1541L235.165 90.1914V87.5097L233.416 86.4977Z" fill="white"/>
<path d="M233.416 89.6094V92.2659L235.165 93.2778V90.6214L233.416 89.6094Z" fill="white"/>
<path d="M233.416 92.696V95.3777L235.165 96.3897V93.7333L233.416 92.696Z" fill="white"/>
<path d="M222.134 90.672V93.3284L223.909 94.3404V91.684L222.134 90.672Z" fill="white"/>
<path d="M222.134 93.7584V96.4401L223.909 97.452V94.7956L222.134 93.7584Z" fill="white"/>
<path d="M222.134 96.8702V99.5519L223.909 100.564V97.8822L222.134 96.8702Z" fill="white"/>
<path d="M225.303 92.4934V95.1498L227.078 96.1871V93.5054L225.303 92.4934Z" fill="white"/>
<path d="M225.303 95.6053V98.2617L227.078 99.2737V96.6173L225.303 95.6053Z" fill="white"/>
<path d="M225.303 98.6918V101.373L227.078 102.385V99.729L225.303 98.6918Z" fill="white"/>
<path d="M227.332 93.6572V96.3136L229.081 97.3509V94.6692L227.332 93.6572Z" fill="white"/>
<path d="M227.332 96.7691V99.4255L229.081 100.437V97.7811L227.332 96.7691Z" fill="white"/>
<path d="M227.332 99.8555V102.537L229.081 103.549V100.893L227.332 99.8555Z" fill="white"/>
<path d="M229.36 94.821V97.5027L231.109 98.5147V95.833L229.36 94.821Z" fill="white"/>
<path d="M229.36 97.9328V100.589L231.109 101.626V98.9448L229.36 97.9328Z" fill="white"/>
<path d="M229.36 101.045V103.701L231.109 104.713V102.057L229.36 101.045Z" fill="white"/>
<path d="M231.388 99.906V99.0965V95.9847L233.137 96.9966V100.108V100.918V102.79L231.388 101.778V99.906Z" fill="white"/>
<path d="M231.388 102.208V104.865L233.137 105.902V103.22L231.388 102.208Z" fill="white"/>
<path d="M233.416 97.1485V99.8302L235.165 100.842V98.1858L233.416 97.1485Z" fill="white"/>
<path d="M233.416 100.26V102.942L235.165 103.954V101.272L233.416 100.26Z" fill="white"/>
<path d="M194.678 73.9748L199.089 71.3943L199.14 51.7115L194.729 54.2921L194.678 73.9748Z" fill="#B3B3B3"/>
<path d="M194.729 54.292L199.14 51.7115L187.25 44.8554L182.839 47.4359L194.729 54.292Z" fill="white"/>
<path d="M182.839 47.436L182.788 67.1187L194.678 73.9748L194.729 54.292L182.839 47.436Z" fill="#CCCCCC"/>
<path d="M189.481 76.9601L193.892 74.4049L193.968 54.6968L189.532 57.2773L189.481 76.9601Z" fill="#B3B3B3"/>
<path d="M189.531 57.2774L193.968 54.6969L182.078 47.8661L177.641 50.4213L189.531 57.2774Z" fill="white"/>
<path d="M177.641 50.4213L177.591 70.104L189.481 76.9601L189.531 57.2773L177.641 50.4213Z" fill="#CCCCCC"/>
<path d="M184.284 79.9455L188.72 77.3903L188.771 57.7075L184.334 60.2627L184.284 79.9455Z" fill="#B3B3B3"/>
<path d="M184.334 60.2627L188.771 57.7074L176.881 50.8514L172.444 53.4066L184.334 60.2627Z" fill="white"/>
<path d="M172.444 53.4066L172.393 73.1146L184.284 79.9454L184.334 60.2626L172.444 53.4066Z" fill="#CCCCCC"/>
<path d="M179.086 82.956L183.523 80.3755L183.574 60.6927L179.162 63.248L179.086 82.956Z" fill="#B3B3B3"/>
<path d="M179.163 63.2479L183.574 60.6927L171.684 53.8366L167.272 56.4171L179.163 63.2479Z" fill="white"/>
<path d="M167.272 56.4172L167.196 76.0999L179.086 82.956L179.162 63.2479L167.272 56.4172Z" fill="#CCCCCC"/>
<path d="M173.915 85.9413L178.326 83.3608L178.402 63.678L173.965 66.2333L173.915 85.9413Z" fill="#B3B3B3"/>
<path d="M173.965 66.2332L178.402 63.678L166.512 56.8219L162.075 59.4024L173.965 66.2332Z" fill="white"/>
<path d="M162.075 59.4025L162.024 79.0852L173.915 85.9413L173.965 66.2332L162.075 59.4025Z" fill="#CCCCCC"/>
<path d="M168.717 88.9266L173.154 86.3461L173.205 66.6633L168.768 69.2439L168.717 88.9266Z" fill="#B3B3B3"/>
<path d="M168.768 69.2438L173.205 66.6633L161.314 59.8072L156.878 62.3877L168.768 69.2438Z" fill="white"/>
<path d="M156.878 62.3878L156.827 82.0705L168.717 88.9266L168.768 69.2438L156.878 62.3878Z" fill="#CCCCCC"/>
<path d="M206.593 111.594L224.644 101.197L220.258 98.6666L206.593 107.091C206.01 109.14 206.01 110.658 206.593 111.62V111.594Z" fill="#661C1E"/>
<path d="M206.061 111.114L223.782 100.893V96.3644L205.731 106.762C205.148 108.812 205.503 110.127 206.061 111.089V111.114Z" fill="white"/>
<path d="M180.734 96.6933L206.594 111.594C206.036 110.304 206.036 108.786 206.594 107.066L180.734 92.1647C180.202 94.0116 180.202 95.5295 180.734 96.6933Z" fill="#661C1E"/>
<path d="M180.734 92.1647L206.594 107.066L224.644 96.668L198.81 81.7668L180.734 92.1647Z" fill="#52AABF"/>
<path d="M206.974 105.346L225.024 94.9478L220.639 92.4178L206.974 100.842C206.391 102.892 206.391 104.41 206.974 105.371V105.346Z" fill="#A61539"/>
<path d="M206.441 104.865L224.162 94.6442V90.1157L206.112 100.514C205.529 102.563 205.884 103.878 206.441 104.84V104.865Z" fill="white"/>
<path d="M178.681 89.0277L206.974 105.32C206.416 104.03 206.416 102.512 206.974 100.792L178.681 84.4991C178.148 86.346 178.148 87.8639 178.681 89.0277Z" fill="#FBB03B"/>
<path d="M178.681 84.4992L206.974 100.817L225.05 90.3939L196.731 74.1013L178.681 84.4992Z" fill="#661C1E"/>
<path d="M206.441 100.008L224.492 89.6096L220.106 87.0797L206.441 95.5043C205.858 97.5536 205.858 99.0715 206.441 100.033V100.008Z" fill="#176C80"/>
<path d="M205.909 99.5521L223.63 89.3313V84.8027L205.579 95.2007C204.996 97.2499 205.351 98.5655 205.909 99.5268V99.5521Z" fill="white"/>
<path d="M178.123 83.7149L206.416 100.008C205.858 98.7173 205.858 97.1994 206.416 95.479L178.123 79.1864C177.591 81.0332 177.591 82.5512 178.123 83.7149Z" fill="#52AABF"/>
<path d="M178.123 79.1864L206.441 95.479L224.492 85.0811L196.199 68.7631L178.123 79.1864Z" fill="#176C80"/>
<path d="M206.999 93.7586L225.05 83.3607L220.664 80.8307L206.999 89.2554C206.416 91.3046 206.416 92.8226 206.999 93.7839V93.7586Z" fill="#C7363B"/>
<path d="M206.467 93.278L224.188 83.0571V78.5286L206.137 88.9265C205.554 90.9757 205.909 92.2913 206.467 93.2527V93.278Z" fill="white"/>
<path d="M181.14 78.8574L206.999 93.7586C206.441 92.4683 206.441 90.9504 206.999 89.2301L181.14 74.3289C180.608 76.1757 180.608 77.6936 181.14 78.8574Z" fill="#C7363B"/>
<path d="M181.14 74.3289L206.999 89.2301L225.05 78.8068L199.191 63.9309L181.14 74.3289Z" fill="#FBB03B"/>
</g>
<path d="M139.613 114.226L187.858 142.434V146.583L172.419 155.489L124.199 127.305L124.174 123.156L139.613 114.226Z" fill="#0E0E14"/>
<path d="M134.568 131.581L120.168 123.232L120.143 115.541L134.543 123.89L134.568 131.581Z" fill="#5C618A"/>
<path d="M134.543 123.89L120.143 115.541L129.295 96.8959L143.695 105.245L134.543 123.89Z" fill="#838BC5"/>
<path d="M143.695 105.244L129.295 96.8957L138.472 91.6082L152.847 99.9569L143.695 105.244Z" fill="#A2ABE8"/>
<path d="M152.847 99.9569L152.923 121.006L134.568 131.581L134.543 123.89L143.695 105.244L152.847 99.9569Z" fill="#414461"/>
<path d="M170.086 152.048L155.712 143.699L155.686 136.008L170.061 144.357L170.086 152.048Z" fill="#5C618A"/>
<path d="M170.061 144.357L155.686 136.008L164.813 117.363L179.213 125.712L170.061 144.357Z" fill="#838BC5"/>
<path d="M179.213 125.711L129.295 96.8957L138.472 91.6082L188.391 120.424L179.213 125.711Z" fill="#A2ABE8"/>
<path d="M188.391 120.424L188.441 141.473L170.086 152.048L170.061 144.357L179.213 125.712L188.391 120.424Z" fill="#414461"/>
<path d="M170.086 147.57L120.168 118.805V123.232L170.086 152.048V147.57Z" fill="#5C618A"/>
<path d="M132.489 103.246C131.957 104.359 130.714 104.814 129.751 104.258C128.788 103.701 128.433 102.335 128.965 101.197C129.497 100.083 130.74 99.628 131.703 100.185C132.667 100.741 133.021 102.107 132.489 103.246Z" fill="white"/>
<path d="M174.625 135.098L179.213 125.712L142.098 104.283L137.484 113.694L174.625 135.098Z" fill="#838BC5"/>
<path d="M143.822 111.266C144.633 109.874 146.382 109.419 147.776 110.203L161.162 117.919C162.557 118.729 163.013 120.475 162.227 121.866C161.416 123.257 159.667 123.713 158.272 122.929L144.886 115.212C143.492 114.403 143.036 112.657 143.822 111.266Z" fill="#F2F2F2"/>
<path d="M166.993 139.727L161.999 136.843C161.416 136.514 161.239 135.654 161.593 134.92L166.892 124.016C167.247 123.283 168.008 122.954 168.591 123.283L173.585 126.167C174.168 126.496 174.346 127.356 173.991 128.09L168.692 138.994C168.337 139.727 167.577 140.056 166.993 139.727Z" fill="white"/>
<path d="M171.912 129.481L167.019 126.648L168.008 124.598L172.926 127.432L171.912 129.481Z" fill="#00A9D4"/>
<path d="M166.841 127.685L167.678 128.166C167.83 128.241 167.881 128.469 167.779 128.672L167.323 129.633C167.222 129.81 167.044 129.911 166.892 129.81L166.056 129.329C165.903 129.253 165.853 129.026 165.954 128.823L166.41 127.862C166.512 127.685 166.689 127.584 166.841 127.685Z" fill="#ED3E69"/>
<g style="mix-blend-mode:multiply" opacity="0.2">
<path d="M143.162 126.825L151.757 131.809L160.3 126.875L151.681 121.917L143.162 126.825Z" fill="#838BC5"/>
</g>
<path d="M223.96 283.274L162.709 247.982V194.171L223.96 229.463V283.274Z" fill="#BD8A4B"/>
<path d="M277.884 252.207L223.96 283.275V229.463L277.884 198.396V252.207Z" fill="#EFB972"/>
<path d="M277.884 198.396L252.76 212.892L250.884 213.955L223.96 229.463L162.709 194.171L189.633 178.663L191.484 177.575L216.608 163.104L277.884 198.396Z" fill="#FFE1B3"/>
<path d="M252.76 212.892L250.884 213.955L189.633 178.663L191.484 177.575L252.76 212.892Z" fill="#BD8A4B"/>
<path d="M210.422 170.466C216.151 167.177 225.43 167.177 231.16 170.466C234.075 172.161 235.698 174.438 235.698 176.892C235.698 179.346 234.101 181.648 231.16 183.318C228.295 184.962 224.543 185.797 220.791 185.797C217.039 185.797 213.287 184.962 210.422 183.318C207.506 181.623 205.884 179.346 205.884 176.892C205.884 174.438 207.481 172.136 210.422 170.466Z" fill="#0E0E14"/>
<path d="M236.332 160.169L234.557 176.715C234.329 178.764 232.808 180.763 230.095 182.255C224.847 185.114 216.684 185.114 211.436 182.255C208.723 180.763 207.202 178.789 206.974 176.715L205.199 160.169H236.306H236.332Z" fill="#414461"/>
<path d="M209.788 153.844C203.703 157.336 203.703 163.028 209.788 166.519C215.872 170.01 225.709 170.01 231.794 166.519C237.878 163.028 237.878 157.336 231.794 153.844C225.709 150.353 215.872 150.353 209.788 153.844Z" fill="#838BC5"/>
<path d="M204.565 160.169C204.565 161.535 205.022 162.851 205.909 164.04C206.72 165.178 207.937 166.19 209.458 167.076C210.041 167.43 210.675 167.733 211.334 168.012C214.149 169.201 217.47 169.783 220.791 169.783C224.112 169.783 227.534 169.176 230.374 167.961C230.982 167.708 231.565 167.405 232.123 167.101C232.884 166.646 233.594 166.165 234.177 165.659C236.027 164.065 236.991 162.193 236.991 160.194C236.991 157.563 235.267 155.109 232.098 153.288C231.743 153.085 231.363 152.883 230.982 152.706C228.295 151.416 225.05 150.732 221.754 150.606C221.399 150.606 221.044 150.606 220.689 150.606C219.295 150.606 217.875 150.707 216.506 150.935C216.329 150.935 216.151 150.985 215.999 151.011C213.591 151.441 211.334 152.2 209.433 153.288C208.089 154.047 207.025 154.932 206.213 155.893C206.061 156.071 205.934 156.248 205.808 156.425C204.971 157.589 204.54 158.879 204.54 160.194L204.565 160.169ZM205.884 160.169C205.884 159.157 206.213 158.17 206.847 157.26C207.557 156.222 208.672 155.236 210.118 154.401C211.588 153.541 213.287 152.908 215.112 152.478C216.658 152.124 218.281 151.922 219.903 151.871C220.208 151.871 220.512 151.871 220.791 151.871C221.12 151.871 221.45 151.871 221.805 151.871C225.025 151.997 228.168 152.706 230.729 153.996C230.982 154.123 231.236 154.249 231.464 154.401C234.177 155.969 235.698 158.019 235.698 160.169C235.698 161.535 235.089 162.876 233.923 164.065C233.264 164.748 232.453 165.381 231.464 165.937C231.058 166.165 230.653 166.393 230.222 166.57C224.796 169.074 217.064 169.1 211.563 166.671C211.056 166.443 210.574 166.216 210.118 165.937C208.368 164.925 207.126 163.736 206.467 162.421C206.087 161.687 205.909 160.928 205.909 160.169H205.884Z" fill="#0E0E14"/>
<path d="M240.946 286.614L243.253 285.273L243.405 235.484L241.098 236.825L240.946 286.614Z" fill="#1A1A1A"/>
<path d="M181.951 275.66C181.951 275.052 182.357 274.445 183.168 273.965L194.881 267.159C196.503 266.223 199.14 266.223 200.762 267.159L224.416 280.795C225.354 281.327 225.734 282.06 225.608 282.769C225.608 282.693 225.658 282.592 225.658 282.516V285.88C225.658 286.488 225.253 287.095 224.441 287.575L212.729 294.381C211.106 295.317 208.469 295.317 206.847 294.381L183.193 280.745C182.382 280.264 181.976 279.657 181.976 279.024V275.66H181.951Z" fill="#1A1A1A"/>
<path d="M224.416 280.795C226.039 281.731 226.064 283.249 224.416 284.185L212.703 290.991C211.081 291.927 208.444 291.927 206.822 290.991L183.168 277.355C181.546 276.419 181.52 274.901 183.168 273.965L194.881 267.159C196.503 266.223 199.14 266.223 200.763 267.159L224.416 280.795Z" fill="#999999"/>
<path d="M241.098 236.825L243.405 235.485L175.41 196.296L173.078 197.662L241.098 236.825Z" fill="#808080"/>
<path d="M173.078 197.662L172.951 247.451L240.946 286.614L241.098 236.825L173.078 197.662Z" fill="#333333"/>
<path d="M205.554 282.035L210.067 279.429L209.661 256.28L207.177 257.419L205.554 282.035Z" fill="#1A1A1A"/>
<path d="M207.177 257.419L209.661 256.28L202.994 252.435L200.484 253.573L207.177 257.419Z" fill="#333333"/>
<path d="M200.484 253.573L198.861 278.19L205.554 282.035L207.177 257.419L200.484 253.573Z" fill="#808080"/>
<path d="M189.886 231.614C189.354 231.917 189.024 232.575 189.024 233.511L188.974 247.046C188.974 248.918 190.292 251.195 191.915 252.131L215.568 265.767C216.506 266.299 217.318 266.273 217.875 265.818C217.799 265.869 217.749 265.945 217.672 265.995L220.588 264.3C221.12 263.997 221.45 263.339 221.45 262.403L221.501 248.868C221.501 246.996 220.182 244.719 218.56 243.783L194.906 230.146C194.095 229.666 193.334 229.64 192.802 229.944L189.886 231.639V231.614Z" fill="#666666"/>
<path d="M215.568 265.742C217.191 266.678 218.534 265.919 218.534 264.047L218.585 250.512C218.585 248.64 217.267 246.363 215.644 245.427L191.991 231.791C190.368 230.855 189.024 231.614 189.024 233.486L188.974 247.021C188.974 248.893 190.292 251.17 191.915 252.106L215.568 265.742Z" fill="#1A1A1A"/>
<g style="mix-blend-mode:multiply" opacity="0.36">
<path d="M467.206 209.55L413.734 178.636L422.365 174.163L504.093 170.784L519.696 178.984L467.206 209.55Z" fill="#848484"/>
</g>
<path d="M418.207 148.499V175.815L469.441 205.447V178.131L418.207 148.499Z" fill="#BD8A4B"/>
<g style="mix-blend-mode:multiply" opacity="0.75">
<path d="M418.207 148.499V167.701L469.441 197.333V178.131L418.207 148.499Z" fill="#BD8A4B"/>
</g>
<path d="M514.528 179.363L469.441 205.447V178.131L514.528 152.047V179.363Z" fill="#EFB972"/>
<path d="M418.228 148.499L469.42 178.131L490.914 165.705L491.953 165.11L493.522 164.218L514.528 152.068L463.294 122.415L442.287 134.565L440.719 135.478L418.228 148.499Z" fill="#FFE1B3"/>
<path d="M463.294 122.415V149.731L490.914 165.705L491.953 165.11L493.522 164.218L514.528 152.068L463.294 122.415Z" fill="#BD8A4B"/>
<path d="M463.294 122.415V149.731L435.674 165.705L434.635 165.11L433.066 164.218L412.081 152.068L463.294 122.415Z" fill="#EFB972"/>
<path d="M469.441 178.109L418.207 148.478L400.422 152.662L451.657 182.294L469.441 178.109Z" fill="#FFE1B3"/>
<path d="M525 132.526L473.787 102.873L463.294 122.415L514.528 152.046L525 132.526Z" fill="#FFE1B3"/>
<mask id="mask1_2001_179" style="mask-type:luminance" maskUnits="userSpaceOnUse" x="418" y="106" width="98" height="73">
<path d="M514.528 152.046L469.441 178.109L418.207 148.478L418.08 106.548L515.207 109.734L514.528 152.046Z" fill="white"/>
</mask>
<g mask="url(#mask1_2001_179)">
<path d="M466.961 168.211C466.961 167.765 467.258 167.319 467.851 166.979L476.415 161.987C477.602 161.308 479.51 161.308 480.697 161.987L497.952 171.971C498.63 172.374 498.905 172.905 498.821 173.415C498.821 173.351 498.842 173.288 498.842 173.224V175.688C498.842 176.134 498.545 176.58 497.952 176.92L489.388 181.912C488.201 182.591 486.293 182.591 485.106 181.912L467.851 171.928C467.258 171.588 466.961 171.121 466.961 170.675V168.211Z" fill="#1A1A1A"/>
<path d="M497.931 171.971C499.118 172.65 499.118 173.776 497.931 174.456L489.367 179.448C488.18 180.127 486.272 180.127 485.085 179.448L467.83 169.464C466.643 168.784 466.643 167.659 467.83 166.979L476.394 161.987C477.581 161.308 479.489 161.308 480.676 161.987L497.931 171.971Z" fill="white"/>
<path d="M484.47 174.477L487.756 172.544L486.145 161.095L484.491 162.051L484.47 174.477Z" fill="#1A1A1A"/>
<path d="M484.491 162.051L486.145 161.095L481.269 158.27L479.616 159.226L484.491 162.051Z" fill="#333333"/>
<path d="M479.616 159.226L479.595 171.652L484.47 174.477L484.492 162.051L479.616 159.226Z" fill="#808080"/>
<path d="M508.19 143.699L508.084 180.17L458.482 151.473L458.588 114.981L508.19 143.699Z" fill="#E6E6E6"/>
<path d="M508.084 180.17L509.78 179.172L509.886 142.7L508.19 143.699L508.084 180.17Z" fill="#1A1A1A"/>
<path d="M508.19 143.699L509.886 142.7L460.263 114.004L458.588 114.981L508.19 143.699Z" fill="#808080"/>
<path d="M506.749 177.833V177.154L506.834 144.463L460.496 117.657L459.924 117.338L459.839 150.687L506.749 177.833Z" fill="#1A1A1A"/>
<path d="M506.749 177.153L506.834 144.463L460.496 117.657L460.411 150.368L506.749 177.153Z" fill="#29ABE2"/>
<path d="M494.454 183.611V143.189L481.566 135.733L480.719 136.222L481.566 176.155L493.607 184.099L494.454 183.611Z" fill="white"/>
<path d="M493.607 184.099V143.677L480.719 136.222V176.644L493.607 184.099Z" fill="#1A1A1A"/>
<path d="M481.694 138.516V140.746L483.177 141.596V139.365L481.694 138.516Z" fill="white"/>
<path d="M481.694 141.107V143.359L483.177 144.208V141.978L481.694 141.107Z" fill="white"/>
<path d="M481.694 143.72V145.971L483.177 146.821V144.569L481.694 143.72Z" fill="white"/>
<path d="M481.694 146.333V148.563L483.177 149.434V147.182L481.694 146.333Z" fill="white"/>
<path d="M481.694 148.945V151.175L483.177 152.025V149.795L481.694 148.945Z" fill="white"/>
<path d="M481.694 151.536V153.788L483.177 154.638V152.407L481.694 151.536Z" fill="white"/>
<path d="M481.694 154.149V156.401L483.177 157.25V154.999L481.694 154.149Z" fill="white"/>
<path d="M481.694 156.762V158.992L483.177 159.863V157.611L481.694 156.762Z" fill="white"/>
<path d="M481.694 159.374V161.605L483.177 162.454V160.224L481.694 159.374Z" fill="white"/>
<path d="M481.694 161.966V164.218L483.177 165.067V162.837L481.694 161.966Z" fill="white"/>
<path d="M481.694 164.578V166.83L483.177 167.68V165.428L481.694 164.578Z" fill="white"/>
<path d="M484.343 140.045V142.275L485.827 143.146V140.895L484.343 140.045Z" fill="white"/>
<path d="M484.343 142.658V144.888L485.827 145.738V143.507L484.343 142.658Z" fill="white"/>
<path d="M484.343 145.249V147.501L485.827 148.35V146.12L484.343 145.249Z" fill="white"/>
<path d="M484.343 147.862V150.113L485.827 150.963V148.712L484.343 147.862Z" fill="white"/>
<path d="M484.343 150.474V152.705L485.827 153.576V151.324L484.343 150.474Z" fill="white"/>
<path d="M484.343 153.087V155.317L485.827 156.167V153.937L484.343 153.087Z" fill="white"/>
<path d="M484.343 155.679V157.93L485.827 158.78V156.549L484.343 155.679Z" fill="white"/>
<path d="M484.343 158.291V160.543L485.827 161.392V159.141L484.343 158.291Z" fill="white"/>
<path d="M484.343 160.904V163.134L485.827 164.005V161.754L484.343 160.904Z" fill="white"/>
<path d="M484.343 163.517V165.747L485.827 166.597V164.366L484.343 163.517Z" fill="white"/>
<path d="M484.343 166.108V168.36L485.827 169.209V166.979L484.343 166.108Z" fill="white"/>
<path d="M486.039 141.022V143.253L487.523 144.123V141.872L486.039 141.022Z" fill="white"/>
<path d="M486.039 143.635V145.865L487.523 146.715V144.485L486.039 143.635Z" fill="white"/>
<path d="M486.039 146.226V148.478L487.523 149.328V147.097L486.039 146.226Z" fill="white"/>
<path d="M486.039 148.839V151.09L487.523 151.94V149.689L486.039 148.839Z" fill="white"/>
<path d="M486.039 151.452V153.682L487.523 154.553V152.301L486.039 151.452Z" fill="white"/>
<path d="M486.039 154.064V156.295L487.523 157.166V154.914L486.039 154.064Z" fill="white"/>
<path d="M486.039 156.656V158.907L487.523 159.757V157.527L486.039 156.656Z" fill="white"/>
<path d="M486.039 159.268V161.52L487.523 162.37V160.139L486.039 159.268Z" fill="white"/>
<path d="M486.039 161.881V164.133L487.523 164.982V162.731L486.039 161.881Z" fill="white"/>
<path d="M486.039 164.494V166.724L487.523 167.595V165.343L486.039 164.494Z" fill="white"/>
<path d="M487.735 141.999V144.251L489.219 145.1V142.849L487.735 141.999Z" fill="white"/>
<path d="M487.735 144.612V146.842L489.219 147.713V145.462L487.735 144.612Z" fill="white"/>
<path d="M487.735 147.225V149.455L489.219 150.305V148.074L487.735 147.225Z" fill="white"/>
<path d="M487.735 149.816V152.067L489.219 152.917V150.687L487.735 149.816Z" fill="white"/>
<path d="M487.735 152.429V154.68L489.219 155.53V153.278L487.735 152.429Z" fill="white"/>
<path d="M487.735 155.041V157.272L489.219 158.143V155.891L487.735 155.041Z" fill="white"/>
<path d="M487.735 157.654V159.884L489.219 160.734V158.504L487.735 157.654Z" fill="white"/>
<path d="M487.735 160.245V162.497L489.219 163.347V161.116L487.735 160.245Z" fill="white"/>
<path d="M487.735 162.858V165.11L489.219 165.959V163.708L487.735 162.858Z" fill="white"/>
<path d="M486.039 167.106L487.735 168.083V165.471L489.219 166.32V168.933V169.592V171.163L487.968 170.441L487.735 170.314L486.039 169.337V167.106Z" fill="white"/>
<path d="M489.431 146.269V145.589V142.976L490.915 143.826V146.439V147.118V148.69L489.431 147.819V146.269Z" fill="white"/>
<path d="M489.431 148.202V150.432L490.915 151.303V149.051L489.431 148.202Z" fill="white"/>
<path d="M489.431 150.814V153.045L490.915 153.894V151.664L489.431 150.814Z" fill="white"/>
<path d="M489.431 153.406V155.657L490.915 156.507V154.277L489.431 153.406Z" fill="white"/>
<path d="M489.431 156.018V158.27L490.915 159.12V156.868L489.431 156.018Z" fill="white"/>
<path d="M489.431 158.631V160.861L490.915 161.732V159.481L489.431 158.631Z" fill="white"/>
<path d="M489.431 161.244V163.474L490.915 164.324V162.093L489.431 161.244Z" fill="white"/>
<path d="M489.431 163.835V166.087L490.915 166.936V164.706L489.431 163.835Z" fill="white"/>
<path d="M489.431 168.699V168.317V166.448L490.915 167.297V169.167V169.549V172.162L489.431 171.291V168.699Z" fill="white"/>
<path d="M491.127 143.953V146.205L492.61 147.055V144.824L491.127 143.953Z" fill="white"/>
<path d="M491.127 146.566V148.818L492.61 149.667V147.416L491.127 146.566Z" fill="white"/>
<path d="M491.127 149.179V151.409L492.61 152.28V150.028L491.127 149.179Z" fill="white"/>
<path d="M491.127 163.325V162.221V161.838V159.608V159.247V156.995V156.634V154.383V151.791L492.61 152.641V155.254V157.484V157.845V160.097V160.458V162.709V163.07V164.196V165.301L491.127 164.451V163.325Z" fill="white"/>
<path d="M491.127 164.812V167.064L492.61 167.914V165.683L491.127 164.812Z" fill="white"/>
<path d="M491.127 167.425V169.677L492.61 170.526V168.275L491.127 167.425Z" fill="white"/>
<path d="M491.127 170.038V172.268L492.61 173.139V170.887L491.127 170.038Z" fill="white"/>
<path d="M481.694 168.317V170.569L483.177 171.418V169.167L481.694 168.317Z" fill="white"/>
<path d="M481.694 170.93V173.16L483.177 174.031V171.779L481.694 170.93Z" fill="white"/>
<path d="M481.694 173.542V175.773L483.177 176.622V174.392L481.694 173.542Z" fill="white"/>
<path d="M484.343 169.846V172.098L485.827 172.948V170.717L484.343 169.846Z" fill="white"/>
<path d="M484.343 172.459V174.711L485.827 175.56V173.309L484.343 172.459Z" fill="white"/>
<path d="M484.343 175.072V177.302L485.827 178.173V175.921L484.343 175.072Z" fill="white"/>
<path d="M486.039 170.824V173.075L487.523 173.925V171.695L486.039 170.824Z" fill="white"/>
<path d="M486.039 173.436V175.688L487.523 176.537V174.307L486.039 173.436Z" fill="white"/>
<path d="M486.039 176.049V178.3L487.523 179.15V176.898L486.039 176.049Z" fill="white"/>
<path d="M487.735 171.822V174.052L489.219 174.902V172.671L487.735 171.822Z" fill="white"/>
<path d="M487.735 174.413V176.665L489.219 177.514V175.284L487.735 174.413Z" fill="white"/>
<path d="M487.735 177.026V179.278L489.219 180.127V177.876L487.735 177.026Z" fill="white"/>
<path d="M489.431 176.091V175.412V172.799L490.915 173.649V176.261V176.941V178.492L489.431 177.642V176.091Z" fill="white"/>
<path d="M489.431 178.003V180.255L490.915 181.104V178.874L489.431 178.003Z" fill="white"/>
<path d="M491.127 173.776V176.006L492.61 176.877V174.626L491.127 173.776Z" fill="white"/>
<path d="M491.127 176.389V178.619L492.61 179.469V177.238L491.127 176.389Z" fill="white"/>
<path d="M458.737 154.319L462.446 152.153L462.489 135.627L458.779 137.772L458.737 154.319Z" fill="#B3B3B3"/>
<path d="M458.779 137.772L462.489 135.627L452.547 129.871L448.838 132.016L458.779 137.772Z" fill="white"/>
<path d="M448.837 132.016L448.795 148.563L458.737 154.319L458.779 137.772L448.837 132.016Z" fill="#CCCCCC"/>
<path d="M454.391 156.826L458.101 154.659L458.143 138.134L454.455 140.279L454.391 156.826Z" fill="#B3B3B3"/>
<path d="M454.455 140.279L458.143 138.134L448.202 132.377L444.513 134.544L454.455 140.279Z" fill="white"/>
<path d="M444.513 134.544L444.45 151.069L454.391 156.826L454.455 140.279L444.513 134.544Z" fill="#CCCCCC"/>
<path d="M450.067 159.332L453.755 157.165L453.819 140.64L450.109 142.806L450.067 159.332Z" fill="#B3B3B3"/>
<path d="M450.109 142.806L453.819 140.64L443.877 134.883L440.168 137.05L450.109 142.806Z" fill="white"/>
<path d="M440.168 137.05L440.125 153.576L450.067 159.332L450.109 142.807L440.168 137.05Z" fill="#CCCCCC"/>
<path d="M445.721 161.839L449.431 159.693L449.473 143.147L445.764 145.313L445.721 161.839Z" fill="#B3B3B3"/>
<path d="M445.764 145.313L449.474 143.146L439.532 137.411L435.822 139.557L445.764 145.313Z" fill="white"/>
<path d="M435.822 139.557L435.78 156.082L445.721 161.839L445.764 145.313L435.822 139.557Z" fill="#CCCCCC"/>
<path d="M441.376 164.345L445.086 162.2L445.128 145.674L441.418 147.819L441.376 164.345Z" fill="#B3B3B3"/>
<path d="M441.418 147.819L445.128 145.674L435.186 139.918L431.477 142.063L441.418 147.819Z" fill="white"/>
<path d="M431.477 142.063L431.434 158.61L441.376 164.345L441.418 147.819L431.477 142.063Z" fill="#CCCCCC"/>
<path d="M437.03 166.873L440.74 164.706L440.782 148.18L437.094 150.326L437.03 166.873Z" fill="#B3B3B3"/>
<path d="M437.094 150.326L440.783 148.181L430.841 142.424L427.153 144.591L437.094 150.326Z" fill="white"/>
<path d="M427.152 144.591L427.089 161.116L437.03 166.873L437.094 150.326L427.152 144.591Z" fill="#CCCCCC"/>
<path d="M468.721 185.884L483.813 177.154L480.146 175.029L468.721 182.103C468.233 183.823 468.233 185.098 468.721 185.905V185.884Z" fill="#661C1E"/>
<path d="M468.276 185.501L483.093 176.92V173.118L468 181.848C467.513 183.568 467.809 184.673 468.276 185.48V185.501Z" fill="white"/>
<path d="M447.099 173.394L468.721 185.905C468.254 184.821 468.254 183.547 468.721 182.103L447.099 169.592C446.654 171.142 446.654 172.417 447.099 173.394Z" fill="#661C1E"/>
<path d="M447.099 169.592L468.721 182.081L483.813 173.351L462.192 160.84L447.099 169.592Z" fill="#52AABF"/>
<path d="M469.039 180.637L484.131 171.907L480.464 169.783L469.039 176.856C468.551 178.577 468.551 179.851 469.039 180.658V180.637Z" fill="#A61539"/>
<path d="M468.593 180.255L483.41 171.673V167.871L468.318 176.601C467.83 178.322 468.127 179.426 468.593 180.233V180.255Z" fill="white"/>
<path d="M445.361 166.958L469.017 180.637C468.551 179.554 468.551 178.279 469.017 176.835L445.361 163.156C444.916 164.706 444.916 165.981 445.361 166.958Z" fill="#FBB03B"/>
<path d="M445.361 163.156L469.039 176.835L484.131 168.105L460.475 154.404L445.361 163.156Z" fill="#661C1E"/>
<path d="M468.572 176.176L483.665 167.446L479.998 165.322L468.572 172.395C468.085 174.116 468.085 175.39 468.572 176.198V176.176Z" fill="#176C80"/>
<path d="M468.127 175.773L482.944 167.191V163.389L467.851 172.119C467.364 173.84 467.661 174.944 468.127 175.751V175.773Z" fill="white"/>
<path d="M444.916 162.476L468.572 176.155C468.106 175.072 468.106 173.797 468.572 172.353L444.916 158.673C444.471 160.224 444.471 161.499 444.916 162.476Z" fill="#52AABF"/>
<path d="M444.916 158.674L468.572 172.374L483.686 163.623L460.009 149.943L444.916 158.674Z" fill="#176C80"/>
<path d="M469.039 170.909L484.131 162.178L480.464 160.054L469.039 167.128C468.551 168.848 468.551 170.123 469.039 170.93V170.909Z" fill="#C7363B"/>
<path d="M468.593 170.526L483.41 161.945V158.143L468.318 166.873C467.83 168.593 468.127 169.698 468.593 170.505V170.526Z" fill="white"/>
<path d="M447.438 158.419L469.06 170.93C468.593 169.847 468.593 168.572 469.06 167.128L447.438 154.617C446.993 156.167 446.993 157.442 447.438 158.419Z" fill="#C7363B"/>
<path d="M447.438 154.617L469.039 167.106L484.152 158.376L462.531 145.865L447.438 154.617Z" fill="#FBB03B"/>
</g>
<g style="mix-blend-mode:multiply" opacity="0.36">
<path d="M453.192 288.376L408.688 261.935L420.5 256L488.111 252.193L500.436 259.847L453.192 288.376Z" fill="#7D7D7D"/>
</g>
<path d="M452.713 285.165L498.33 258.783V218.552L452.713 244.955V285.165Z" fill="#BD8A4B"/>
<path d="M412.565 261.948L452.713 285.165V244.955L412.565 221.717V261.948Z" fill="#EFB972"/>
<path d="M412.565 221.717L431.282 232.55L432.66 233.358L452.713 244.955L498.309 218.553L478.277 206.955L476.878 206.169L458.182 195.336L412.565 221.717Z" fill="#FFE1B3"/>
<g style="mix-blend-mode:multiply" opacity="0.7">
<path d="M431.282 232.55L432.66 233.358L478.277 206.955L476.878 206.169L431.282 232.55Z" fill="#BD8A4B"/>
</g>
</g>
<defs>
<clipPath id="clip0_2001_179">
<rect width="546" height="297" fill="white"/>
</clipPath>
</defs>
</svg>
